<svg width="100" height="100" viewBox="0 0 100 100" fill="none" xmlns="http://www.w3.org/2000/svg">
<path d="M49.2929 72.7071C49.6834 73.0976 50.3166 73.0976 50.7071 72.7071L57.0711 66.3431C57.4616 65.9526 57.4616 65.3195 57.0711 64.9289C56.6805 64.5384 56.0474 64.5384 55.6569 64.9289L50 70.5858L44.3431 64.9289C43.9526 64.5384 43.3195 64.5384 42.9289 64.9289C42.5384 65.3195 42.5384 65.9526 42.9289 66.3431L49.2929 72.7071ZM50 27L49 27L49 72L50 72L51 72L51 27L50 27Z" fill="white"/>
<path d="M53.2692 8.35856C52.6871 8.31127 52.1589 8.14395 51.6847 7.8566C51.2184 7.5699 50.8721 7.18861 50.646 6.71274L51.507 6.19275C51.6525 6.57379 51.8844 6.88157 52.2024 7.11609C52.5284 7.35126 52.9306 7.48828 53.4091 7.52715C53.8317 7.56149 54.1691 7.50863 54.4212 7.36859C54.6741 7.22058 54.8112 7.01501 54.8326 6.75188C54.8462 6.58443 54.8027 6.42839 54.7021 6.28377C54.6101 6.13183 54.4152 6.01165 54.1174 5.92324L52.7064 5.50763C52.1341 5.34073 51.7317 5.10738 51.4992 4.80757C51.2747 4.50841 51.1793 4.15151 51.213 3.73688C51.2396 3.40996 51.3556 3.1184 51.5611 2.86219C51.7745 2.60664 52.0591 2.41305 52.415 2.28143C52.7794 2.14249 53.1969 2.09212 53.6673 2.13034C54.2574 2.17828 54.7463 2.33439 55.1342 2.59866C55.5221 2.86294 55.7985 3.21447 55.9634 3.65327L55.1193 4.11443C55.0123 3.75258 54.8137 3.47961 54.5237 3.29552C54.2343 3.10345 53.9262 2.99414 53.5992 2.96758C53.3122 2.94426 53.0618 2.96405 52.848 3.02694C52.6421 3.09048 52.4776 3.18948 52.3543 3.32394C52.2396 3.45107 52.1751 3.60234 52.1608 3.77777C52.1466 3.95319 52.1931 4.12151 52.3004 4.28272C52.4083 4.43597 52.6231 4.55776 52.9449 4.64811L54.4147 5.08055C54.9637 5.23753 55.3395 5.45266 55.5421 5.72596C55.7446 5.99925 55.8309 6.3193 55.8011 6.68609C55.7706 7.06085 55.644 7.38366 55.4214 7.65452C55.1993 7.9174 54.9027 8.11002 54.5316 8.23237C54.1605 8.35471 53.7397 8.39678 53.2692 8.35856Z" fill="white"/>
<path d="M57.885 8.76223L60.064 0.27756L60.9939 0.516137L60.0835 4.0611C60.3745 3.76411 60.7065 3.58087 61.0795 3.51139C61.4525 3.44191 61.8366 3.45787 62.2318 3.55926C62.6503 3.66662 63.0091 3.8454 63.3082 4.0956C63.6094 4.33805 63.8189 4.64784 63.9368 5.02497C64.0625 5.40409 64.0606 5.84548 63.9313 6.34913L62.9761 10.0684L62.0462 9.82987L62.9178 6.436C63.083 5.79287 63.0579 5.31154 62.8426 4.99201C62.6371 4.66672 62.3328 4.45239 61.9299 4.349C61.6509 4.27743 61.355 4.27172 61.0422 4.33187C60.7295 4.39203 60.4413 4.54934 60.1777 4.80382C59.9238 5.05254 59.7332 5.42485 59.6059 5.92076L58.8149 9.00081L57.885 8.76223Z" fill="white"/>
<path d="M67.2925 11.9541C66.7754 11.7191 66.3643 11.396 66.0591 10.9849C65.7612 10.5771 65.5954 10.1108 65.5618 9.58579C65.5314 9.05355 65.6504 8.49251 65.9188 7.90267C66.1871 7.31283 66.5302 6.85803 66.9481 6.53829C67.3693 6.21126 67.8279 6.02424 68.3239 5.97724C68.8199 5.93023 69.3191 6.02092 69.8217 6.24931C70.3315 6.481 70.7151 6.78717 70.9726 7.16782C71.2374 7.55177 71.3784 7.97611 71.3955 8.44083C71.4159 8.89827 71.3201 9.36001 71.1081 9.82606C71.0518 9.94985 70.9968 10.0611 70.9431 10.1597C70.8895 10.2583 70.8372 10.3444 70.7862 10.4179L66.3726 8.41207L66.7253 7.63654L70.7566 9.46858L70.2689 9.35241C70.5074 8.8281 70.5456 8.35776 70.3835 7.94136C70.2286 7.52828 69.9181 7.21582 69.452 7.00399C69.0951 6.8418 68.7475 6.78487 68.4091 6.8332C68.0813 6.87755 67.7734 7.02319 67.4853 7.27012C67.2078 7.51307 66.9696 7.85301 66.7709 8.28993C66.5754 8.71956 66.4793 9.12404 66.4826 9.50337C66.4858 9.88269 66.5804 10.2157 66.7664 10.5023C66.963 10.785 67.247 11.0107 67.6185 11.1795C68.019 11.3616 68.3779 11.4324 68.6951 11.392C69.0196 11.3549 69.3179 11.2401 69.5901 11.0474L70.0945 11.7644C69.8435 11.9491 69.5674 12.0828 69.2661 12.1656C68.972 12.2516 68.6562 12.2794 68.3185 12.249C67.9914 12.2146 67.6494 12.1163 67.2925 11.9541Z" fill="white"/>
<path d="M70.0834 16.0021L74.91 8.9811L75.6024 9.45665L74.8423 10.7106L74.8287 10.4975C75.073 10.3256 75.3398 10.2128 75.6291 10.1592C75.9229 10.099 76.2258 10.1032 76.5378 10.1719C76.8498 10.2405 77.1476 10.3723 77.4311 10.567C77.8334 10.8433 78.1324 11.1991 78.3283 11.6344C78.5307 12.0743 78.6027 12.5556 78.5443 13.0784C78.4858 13.6012 78.2708 14.1328 77.8992 14.6734C77.5321 15.2074 77.1094 15.5964 76.6309 15.8405C76.1637 16.0824 75.6883 16.1878 75.2049 16.1567C74.7215 16.1256 74.2754 15.9696 73.8665 15.6888C73.4576 15.408 73.1662 15.0623 72.9922 14.6516C72.8294 14.2389 72.7885 13.8324 72.8696 13.4319L73.0705 13.3515L70.8748 16.5456L70.0834 16.0021ZM74.2632 14.9422C74.7512 15.2774 75.2482 15.3664 75.7543 15.2093C76.2669 15.0567 76.7181 14.6969 77.1079 14.1299C77.4976 13.563 77.6751 13.0153 77.6404 12.4868C77.6123 11.9628 77.3575 11.5355 76.8761 11.2049C76.5596 10.9875 76.2282 10.8764 75.8821 10.8715C75.5404 10.8601 75.2062 10.9509 74.8795 11.1438C74.5572 11.3301 74.2647 11.6144 74.0018 11.9968C73.7435 12.3725 73.5796 12.7452 73.51 13.1147C73.447 13.4888 73.4765 13.8342 73.5986 14.1509C73.7317 14.4656 73.9533 14.7294 74.2632 14.9422Z" fill="white"/>
<path d="M82.8168 18.037C83.1304 17.7172 83.2856 17.3876 83.2822 17.0483C83.2844 16.7033 83.1284 16.3768 82.8141 16.0688C82.5169 15.7777 82.2011 15.597 81.8665 15.5269C81.5376 15.451 81.1845 15.5082 80.8073 15.6986L80.5862 14.81C81.0142 14.6022 81.4777 14.5523 81.9767 14.6604C82.4814 14.7628 82.9622 15.038 83.4194 15.4859C83.728 15.7882 83.9548 16.1168 84.0998 16.4717C84.2504 16.8209 84.2907 17.174 84.2207 17.531C84.162 17.8879 83.9674 18.2348 83.6369 18.5718L81.6036 20.6451C81.4019 20.8508 81.4097 21.0599 81.6268 21.2727C81.7354 21.3791 81.8551 21.4684 81.986 21.5406L81.4223 22.0467C81.252 21.9919 81.0755 21.8749 80.8926 21.6957C80.7269 21.5334 80.6091 21.3564 80.5393 21.1648C80.4695 20.9732 80.459 20.7782 80.508 20.5797C80.5625 20.3756 80.685 20.1764 80.8755 19.9822L80.9595 19.8965L81.1057 20.0902C80.8187 20.2457 80.5223 20.3137 80.2166 20.2942C79.9164 20.2689 79.6299 20.1897 79.3569 20.0567C79.0896 19.918 78.8559 19.7507 78.6559 19.5547C78.4045 19.3084 78.2122 19.036 78.0791 18.7375C77.946 18.4391 77.8977 18.1398 77.9343 17.8397C77.9823 17.5395 78.1323 17.2608 78.3843 17.0038C78.698 16.684 79.0614 16.5248 79.4745 16.5263C79.8989 16.5278 80.3389 16.6789 80.7946 16.9798L82.8195 18.3085L82.2649 18.8739L80.6076 17.8046C80.2716 17.5873 79.9846 17.4629 79.7466 17.4314C79.5087 17.3998 79.3001 17.4754 79.1208 17.6582C78.9472 17.8353 78.8729 18.0481 78.898 18.2967C78.9344 18.5452 79.0812 18.7954 79.3384 19.0474C79.5041 19.2097 79.6808 19.3437 79.8686 19.4493C80.0677 19.5548 80.2693 19.6234 80.4733 19.6553C80.6829 19.6815 80.8865 19.6625 81.0839 19.5983C81.2869 19.5284 81.478 19.4021 81.6572 19.2193L82.8168 18.037Z" fill="white"/>
<path d="M82.5213 23.4671L87.3279 19.8759L87.795 20.5006L87.0858 21.1952C87.4812 21.1095 87.8485 21.1397 88.1875 21.2859C88.5314 21.4384 88.8422 21.7005 89.1201 22.072C89.1824 22.1553 89.2431 22.2498 89.3021 22.3555C89.366 22.4676 89.405 22.5732 89.4193 22.6724L88.6169 23.0622C88.5898 22.9726 88.5516 22.8813 88.5021 22.7885C88.4526 22.6956 88.3704 22.5723 88.2554 22.4185C88.1069 22.2199 87.8983 22.0612 87.6296 21.9424C87.3657 21.83 87.0649 21.7951 86.7272 21.8377C86.3958 21.8756 86.0507 22.0285 85.6918 22.2967L83.0963 24.2359L82.5213 23.4671Z" fill="white"/>
<path d="M86.9184 30.3332C86.6881 29.8939 86.5862 29.4325 86.6127 28.949C86.6393 28.4655 86.8005 28.0063 87.0964 27.5713C87.3993 27.1327 87.8378 26.763 88.4119 26.4624C89.0001 26.1543 89.561 26.0096 90.0946 26.0281C90.6282 26.0466 91.1016 26.1915 91.5148 26.4628C91.9351 26.7303 92.2604 27.0837 92.4907 27.523C92.721 27.9623 92.8063 28.4008 92.7467 28.8384C92.6908 29.2831 92.5029 29.657 92.183 29.96L92.0529 29.8927L95.7097 27.9774L96.1554 28.8276L88.3954 32.892L88.0053 32.148L89.2526 31.3999L89.3777 31.4835C89.0398 31.5972 88.7109 31.6159 88.3909 31.5397C88.0818 31.4668 87.798 31.3219 87.5398 31.105C87.2852 30.8951 87.0781 30.6378 86.9184 30.3332ZM87.7071 30.0285C87.8854 30.3686 88.1246 30.6181 88.4247 30.777C88.7285 30.943 89.0716 31.0116 89.454 30.9829C89.8472 30.9576 90.2564 30.8336 90.6816 30.6109C91.0855 30.3993 91.3956 30.1466 91.6119 29.8527C91.8319 29.5659 91.9548 29.2577 91.9807 28.928C92.0103 28.6055 91.9397 28.2812 91.7689 27.9553C91.4865 27.4168 91.0831 27.0953 90.5586 26.9907C90.0341 26.8861 89.4671 26.9934 88.8576 27.3126C88.2482 27.6319 87.8353 28.0332 87.6191 28.5167C87.4029 29.0002 87.4322 29.5041 87.7071 30.0285Z" fill="white"/>
<path d="M91.2025 42.7031C91.1029 42.1439 91.1359 41.622 91.3015 41.1375C91.4685 40.6609 91.7587 40.2599 92.1721 39.9344C92.5933 39.6076 93.1229 39.3874 93.7609 39.2739C94.3988 39.1604 94.968 39.1851 95.4683 39.348C95.9765 39.5095 96.3905 39.7812 96.7104 40.163C97.0303 40.5449 97.2387 41.0075 97.3355 41.551C97.4336 42.1023 97.399 42.592 97.2314 43.0199C97.0652 43.4558 96.7956 43.8125 96.4225 44.0902C96.0573 44.3664 95.6226 44.5494 95.1185 44.6391C94.9846 44.6629 94.8619 44.6807 94.7502 44.6924C94.6385 44.7042 94.538 44.7099 94.4485 44.7095L93.5985 39.9366L94.4374 39.7874L95.2137 44.1468L95.0329 43.6792C95.6 43.5783 96.0091 43.343 96.2602 42.9733C96.5127 42.6115 96.594 42.1786 96.5042 41.6745C96.4355 41.2886 96.2853 40.97 96.0537 40.7186C95.8313 40.4738 95.5367 40.3028 95.17 40.2055C94.8126 40.1147 94.3975 40.1114 93.925 40.1954C93.4603 40.2781 93.0726 40.4283 92.762 40.6461C92.4513 40.8639 92.2307 41.1307 92.1 41.4464C91.9786 41.7687 91.9537 42.1306 92.0253 42.5323C92.1024 42.9655 92.2475 43.3013 92.4606 43.5396C92.6751 43.7859 92.9389 43.9665 93.2519 44.0814L92.9473 44.9035C92.6528 44.8015 92.3861 44.6499 92.1471 44.4486C91.9095 44.2552 91.7076 44.0108 91.5412 43.7154C91.3841 43.4265 91.2712 43.089 91.2025 42.7031Z" fill="white"/>
<path d="M97.941 47.6909L95.4533 49.507L95.37 49.568L91.9899 52.0661L91.9767 50.8902L94.5596 49.001L94.6903 48.8916L97.9275 46.491L97.941 47.6909ZM97.9891 51.9627L94.7586 49.6228L94.7579 49.5628L91.9389 47.5304L91.9263 46.4145L95.3995 48.9916L95.4003 49.0636L97.9764 50.8347L97.9891 51.9627Z" fill="white"/>
<path d="M89.3707 53.6721L97.7825 55.0253L97.649 55.8547L96.1902 55.7051L96.3771 55.6014C96.637 55.7486 96.8531 55.9413 97.0254 56.1797C97.2056 56.4194 97.3314 56.6949 97.4028 57.0062C97.4742 57.3175 97.4826 57.6429 97.4279 57.9826C97.3503 58.4643 97.1566 58.887 96.8469 59.2504C96.5359 59.6217 96.1317 59.8929 95.6341 60.0641C95.1366 60.2352 94.564 60.2687 93.9163 60.1645C93.2765 60.0616 92.744 59.8462 92.3187 59.5185C91.9 59.2 91.6013 58.8157 91.4226 58.3656C91.2439 57.9155 91.194 57.4456 91.2728 56.9559C91.3517 56.4662 91.5395 56.0548 91.8362 55.7217C92.1396 55.3978 92.4896 55.1867 92.8862 55.0884L93.0449 55.2355L89.2181 54.6199L89.3707 53.6721ZM92.1174 56.9945C92.0233 57.579 92.1555 58.0662 92.5141 58.4561C92.8714 58.8539 93.3897 59.1074 94.0689 59.2167C94.7482 59.326 95.3193 59.2517 95.7821 58.994C96.2437 58.7441 96.521 58.3309 96.6138 57.7544C96.6748 57.3752 96.6335 57.0283 96.4897 56.7134C96.3538 56.3999 96.1288 56.1368 95.8146 55.9242C95.5083 55.7128 95.1261 55.5703 94.668 55.4966C94.2178 55.4242 93.8108 55.4357 93.447 55.5311C93.0819 55.6344 92.7823 55.8091 92.5483 56.055C92.3208 56.3101 92.1772 56.6233 92.1174 56.9945Z" fill="white"/>
<path d="M98.468 65.0275L91.5828 62.802C91.2935 62.7085 91.0745 62.6966 90.9259 62.7663C90.7848 62.8384 90.6761 62.9924 90.5998 63.2284C90.5505 63.3806 90.5213 63.5099 90.5122 63.6162C90.503 63.7226 90.5017 63.8693 90.5085 64.0564L89.7572 63.6497C89.7433 63.5107 89.7484 63.3652 89.7723 63.2132C89.7886 63.0587 89.8214 62.9053 89.8707 62.7531C90.0209 62.2888 90.2586 61.9831 90.5836 61.8359C90.9063 61.6964 91.3264 61.7103 91.844 61.8776L98.7635 64.1141L98.468 65.0275Z" fill="white"/>
<path d="M90.638 71.268C91.0393 71.467 91.4009 71.5124 91.7226 71.404C92.0515 71.2992 92.3137 71.0498 92.5094 70.6557C92.6943 70.283 92.7684 69.9269 92.7316 69.5871C92.702 69.251 92.5382 68.9331 92.2403 68.6336L93.0171 68.1482C93.3474 68.4906 93.5383 68.9156 93.5899 69.4234C93.6487 69.9348 93.5358 70.4771 93.2512 71.0503C93.0592 71.4373 92.8168 71.7546 92.5241 72.0024C92.2386 72.2537 91.9152 72.4014 91.5539 72.4455C91.1963 72.5003 90.806 72.4229 90.3831 72.2132L87.7815 70.923C87.5234 70.7951 87.3269 70.8673 87.1917 71.1396C87.1241 71.2757 87.0762 71.4172 87.048 71.5639L86.3921 71.1851C86.3916 71.0062 86.4482 70.8021 86.562 70.5728C86.6652 70.365 86.7971 70.1982 86.9577 70.0725C87.1184 69.9468 87.3006 69.8765 87.5046 69.8615C87.7156 69.8501 87.943 69.9048 88.1867 70.0257L88.2942 70.079L88.1553 70.2779C87.9184 70.0533 87.762 69.7927 87.686 69.4961C87.6171 69.2029 87.6037 68.9061 87.6457 68.6055C87.6949 68.3084 87.7818 68.0345 87.9063 67.7837C88.0628 67.4684 88.2624 67.2012 88.505 66.9822C88.7477 66.7633 89.0174 66.6247 89.3143 66.5665C89.6147 66.519 89.9262 66.5752 90.2487 66.7352C90.6501 66.9342 90.914 67.2303 91.0404 67.6233C91.1704 68.0272 91.1628 68.4922 91.0177 69.0185L90.3806 71.3547L89.671 71.0028L90.1752 69.0963C90.2779 68.7097 90.3073 68.3984 90.2637 68.1624C90.2201 67.9265 90.0836 67.7516 89.8542 67.6379C89.632 67.5277 89.4066 67.5231 89.1779 67.624C88.9528 67.7356 88.7602 67.9526 88.6001 68.2751C88.497 68.4829 88.4243 68.6924 88.382 68.9036C88.3433 69.1255 88.3403 69.3383 88.3731 69.5421C88.4131 69.7495 88.4942 69.937 88.6163 70.1048C88.7457 70.276 88.925 70.4186 89.1544 70.5323L90.638 71.268Z" fill="white"/>
<path d="M90.9771 77.1139C91.0998 76.9362 91.2525 76.8277 91.4352 76.7885C91.6199 76.7604 91.8011 76.8077 91.9789 76.9304C92.1567 77.053 92.2619 77.2034 92.2945 77.3814C92.3292 77.5705 92.2851 77.754 92.1624 77.9317C92.0396 78.1094 91.8859 78.2123 91.7012 78.2404C91.5186 78.2796 91.3384 78.2379 91.1606 78.1153C90.9828 77.9926 90.8766 77.8367 90.8419 77.6475C90.8093 77.4695 90.8544 77.2917 90.9771 77.1139ZM89.7561 76.8547L84.8175 73.4473L85.363 72.6574L90.3016 76.0647L89.7561 76.8547Z" fill="white"/>
<path d="M82.4976 76.6923L86.8818 80.7886L86.308 81.4021L85.2686 80.5459L85.4716 80.522C85.618 80.834 85.6876 81.1344 85.6803 81.4232C85.6789 81.7175 85.6147 81.997 85.4878 82.2615C85.3554 82.532 85.1853 82.7782 84.9777 83.0002C84.6826 83.3158 84.3535 83.5447 83.9903 83.6871C83.6329 83.835 83.2605 83.8702 82.8729 83.7927C82.4798 83.7211 82.0933 83.5077 81.7134 83.1527L78.9075 80.5312L79.5632 79.83L82.1236 82.2222C82.6088 82.6755 83.0432 82.8844 83.427 82.8488C83.8112 82.8245 84.1453 82.6605 84.4295 82.3566C84.6262 82.1463 84.7732 81.8895 84.8706 81.5863C84.9679 81.2831 84.9711 80.9577 84.8801 80.6099C84.7837 80.268 84.5484 79.9222 84.1743 79.5727L81.8419 77.3935L82.4976 76.6923Z" fill="white"/>
<path d="M75.1792 83.4225C75.6329 83.0808 76.1134 82.8743 76.6205 82.8028C77.1213 82.7361 77.6104 82.8135 78.0878 83.0348C78.57 83.2625 79.0062 83.6351 79.3962 84.1526C79.7863 84.67 80.0219 85.1886 80.1031 85.7083C80.1891 86.2344 80.1342 86.7264 79.9384 87.1843C79.7426 87.6423 79.4242 88.0373 78.9833 88.3693C78.5359 88.7062 78.0835 88.8967 77.6259 88.9409C77.1619 88.9899 76.7216 88.9108 76.305 88.7038C75.8933 88.5031 75.5333 88.1983 75.2251 87.7895C75.1433 87.6809 75.0718 87.5795 75.0108 87.4852C74.9498 87.391 74.8992 87.3039 74.859 87.224L78.7316 84.3076L79.2445 84.9879L75.7073 87.6517L76.0426 87.2791C76.3893 87.739 76.7843 87.9973 77.2278 88.054C77.6648 88.1154 78.0878 87.9921 78.4968 87.6841C78.81 87.4483 79.0262 87.1703 79.1455 86.8501C79.2632 86.5411 79.2824 86.2012 79.2032 85.8302C79.1223 85.4705 78.9375 85.0989 78.6485 84.7156C78.3644 84.3387 78.0549 84.0611 77.72 83.8826C77.3852 83.7042 77.0473 83.6281 76.7065 83.6544C76.3641 83.692 76.0299 83.8334 75.704 84.0789C75.3525 84.3436 75.1187 84.6248 75.0026 84.9226C74.88 85.2252 74.8383 85.542 74.8775 85.8731L74.0063 85.9733C73.964 85.6647 73.9785 85.3583 74.0499 85.0542C74.1148 84.7549 74.2414 84.4643 74.4296 84.1824C74.6162 83.9116 74.8661 83.6584 75.1792 83.4225Z" fill="white"/>
<path d="M69.2946 87.1369C69.7367 86.912 70.1993 86.8157 70.6827 86.8481C71.166 86.8805 71.6234 87.0472 72.055 87.3482C72.4902 87.6563 72.8549 88.0991 73.1489 88.6766C73.4502 89.2683 73.5885 89.8307 73.5638 90.3639C73.539 90.8971 73.3886 91.3685 73.1125 91.7783C72.84 92.1952 72.4827 92.5161 72.0406 92.741C71.5985 92.9659 71.159 93.0459 70.7219 92.981C70.2778 92.9197 69.906 92.7274 69.6067 92.404L69.6755 92.2747L71.5487 95.9532L70.6931 96.3885L66.7179 88.5824L67.4666 88.2015L68.2004 89.4573L68.1154 89.5813C68.0056 89.2422 67.9907 88.9132 68.0706 88.5943C68.1471 88.2861 68.2954 88.0043 68.5154 87.7487C68.7282 87.4968 68.988 87.2929 69.2946 87.1369ZM69.5902 87.929C69.2479 88.1031 68.9956 88.3392 68.8332 88.6372C68.6636 88.9389 68.5909 89.281 68.6152 89.6636C68.6359 90.057 68.7552 90.4675 68.973 90.8953C69.18 91.3016 69.4291 91.6147 69.7206 91.8344C70.0049 92.0578 70.3118 92.1844 70.6412 92.2142C70.9635 92.2478 71.2887 92.1811 71.6166 92.0142C72.1585 91.7385 72.4849 91.3391 72.5956 90.8161C72.7063 90.293 72.6055 89.725 72.2933 89.1119C71.9811 88.4988 71.5844 88.0813 71.1033 87.8593C70.6222 87.6373 70.1178 87.6605 69.5902 87.929Z" fill="white"/>
<path d="M56.1058 95.2115L55.9388 94.2296L59.8427 93.5659L60.0098 94.5478L56.1058 95.2115Z" fill="white"/>
<path d="M45.0389 91.5344C45.6186 91.6059 46.1393 91.795 46.6012 92.1018C47.0552 92.4077 47.3852 92.803 47.5914 93.2879L46.7095 93.7716C46.5799 93.3849 46.3611 93.0677 46.0531 92.8202C45.7372 92.5717 45.341 92.418 44.8646 92.3593C44.4438 92.3074 44.1045 92.3462 43.8467 92.4756C43.5879 92.613 43.4424 92.8127 43.4101 93.0747C43.3895 93.2414 43.4264 93.3992 43.5209 93.5478C43.6065 93.7035 43.7963 93.8317 44.0901 93.9324L45.4826 94.4063C46.0475 94.5968 46.4398 94.8467 46.6596 95.1559C46.8715 95.4642 46.9519 95.8247 46.901 96.2376C46.8608 96.5631 46.7328 96.8496 46.5168 97.0971C46.293 97.3435 46.0005 97.5251 45.6395 97.6418C45.2696 97.7655 44.8504 97.7984 44.3819 97.7407C43.7944 97.6683 43.3123 97.4919 42.9358 97.2118C42.5593 96.9316 42.2978 96.5689 42.1512 96.1236L43.0138 95.6979C43.1057 96.0639 43.2927 96.3449 43.5748 96.5409C43.8559 96.7448 44.1593 96.8669 44.4848 96.907C44.7706 96.9422 45.0217 96.9329 45.2379 96.8789C45.4462 96.824 45.6148 96.7319 45.7436 96.6027C45.8634 96.4805 45.9341 96.332 45.9557 96.1573C45.9772 95.9827 45.9378 95.8126 45.8373 95.647C45.7358 95.4894 45.5263 95.3588 45.2086 95.2551L43.758 94.762C43.216 94.5823 42.8494 94.3517 42.6585 94.0702C42.4675 93.7888 42.3946 93.4654 42.4396 93.1002C42.4857 92.727 42.6256 92.4097 42.8594 92.1484C43.0921 91.895 43.3965 91.7148 43.7724 91.608C44.1483 91.5012 44.5705 91.4767 45.0389 91.5344Z" fill="white"/>
<path d="M40.4377 90.9367L37.9021 99.3217L36.9832 99.0441L38.0425 95.5408C37.7392 95.8252 37.3998 95.9943 37.0241 96.0479C36.6485 96.1016 36.2654 96.0694 35.8749 95.9514C35.4613 95.8265 35.1104 95.6327 34.8221 95.3701C34.5314 95.1152 34.3352 94.7968 34.2333 94.4151C34.1238 94.031 34.1443 93.5901 34.2948 93.0923L35.4063 89.4167L36.3253 89.6943L35.311 93.0483C35.1188 93.6839 35.1235 94.1659 35.3251 94.4942C35.5168 94.8279 35.8117 95.0549 36.2099 95.1752C36.4856 95.2585 36.781 95.2766 37.096 95.2298C37.4111 95.1829 37.7057 95.0379 37.9798 94.7947C38.2439 94.557 38.4501 94.193 38.5983 93.703L39.5187 90.6591L40.4377 90.9367Z" fill="white"/>
<path d="M31.1726 87.3515C31.6793 87.608 32.0765 87.9481 32.3641 88.3717C32.6445 88.7916 32.7905 89.2646 32.8021 89.7905C32.81 90.3235 32.6675 90.879 32.3745 91.4571C32.0816 92.0351 31.7197 92.475 31.2887 92.7769C30.854 93.0859 30.388 93.2534 29.8905 93.2795C29.3929 93.3056 28.8979 93.194 28.4054 92.9447C27.9058 92.6917 27.5354 92.3697 27.2941 91.9786C27.0458 91.5838 26.9228 91.1539 26.9253 90.6889C26.9241 90.231 27.0393 89.7737 27.2707 89.317C27.3322 89.1957 27.3918 89.0869 27.4496 88.9906C27.5073 88.8943 27.5632 88.8105 27.6173 88.7393L31.9426 90.929L31.5574 91.689L27.6069 89.6889L28.0892 89.8255C27.8289 90.3393 27.7709 90.8077 27.9154 91.2305C28.0527 91.6497 28.3498 91.975 28.8066 92.2062C29.1563 92.3833 29.5012 92.4548 29.8413 92.4208C30.1707 92.3902 30.4845 92.2577 30.7828 92.0231C31.0703 91.7921 31.3225 91.4624 31.5395 91.0343C31.7528 90.6133 31.8659 90.2132 31.8786 89.8341C31.8914 89.4549 31.8109 89.1183 31.6371 88.8241C31.4526 88.5334 31.1783 88.2959 30.8143 88.1116C30.4217 87.9129 30.0661 87.827 29.7475 87.854C29.4218 87.8774 29.1189 87.9796 28.8388 88.1606L28.365 87.4231C28.6236 87.2491 28.9051 87.1271 29.2096 87.0571C29.507 86.9835 29.8238 86.969 30.1599 87.0136C30.4853 87.0618 30.8228 87.1744 31.1726 87.3515Z" fill="white"/>
<path d="M28.5571 83.1909L23.4418 90.0044L22.7698 89.5004L23.5816 88.2792L23.5863 88.4928C23.335 88.6543 23.0637 88.7558 22.7724 88.7973C22.4763 88.8453 22.1739 88.8284 21.865 88.7468C21.5562 88.6651 21.2642 88.5211 20.989 88.3147C20.5986 88.0219 20.3146 87.6539 20.1371 87.2108C19.9532 86.7629 19.9014 86.279 19.9816 85.7591C20.0617 85.2392 20.2988 84.717 20.6926 84.1924C21.0817 83.6742 21.5203 83.3031 22.0085 83.0793C22.4854 82.857 22.9648 82.7715 23.4465 82.8228C23.9281 82.8741 24.3674 83.0485 24.7642 83.3461C25.161 83.6437 25.4377 84.0013 25.5944 84.4188C25.7399 84.838 25.7638 85.2459 25.666 85.6426L25.462 85.7145L27.7891 82.6148L28.5571 83.1909ZM24.3367 84.0755C23.8631 83.7203 23.3702 83.6106 22.858 83.7465C22.3395 83.8775 21.8737 84.2182 21.4606 84.7684C21.0475 85.3186 20.8473 85.8584 20.86 86.3879C20.8662 86.9126 21.1029 87.3501 21.5701 87.7006C21.8773 87.931 22.2037 88.0558 22.5494 88.0751C22.8903 88.1007 23.228 88.024 23.5625 87.8449C23.8922 87.6722 24.1964 87.4003 24.4749 87.0292C24.7487 86.6646 24.9281 86.2991 25.013 85.9328C25.0915 85.5617 25.0765 85.2154 24.9677 84.8938C24.8478 84.5739 24.6374 84.3011 24.3367 84.0755Z" fill="white"/>
<path d="M15.9213 80.6309C15.5946 80.9374 15.4259 81.2603 15.4152 81.5995C15.3987 81.9441 15.5411 82.2768 15.8423 82.5975C16.1271 82.9007 16.4352 83.0943 16.7666 83.1783C17.0921 83.2678 17.4472 83.2252 17.832 83.0506L18.016 83.9476C17.5798 84.1376 17.1146 84.1682 16.6205 84.0394C16.1206 83.9161 15.6515 83.6213 15.2134 83.1548C14.9176 82.8399 14.7046 82.5022 14.5745 82.1416C14.4385 81.7865 14.4129 81.4321 14.4976 81.0783C14.571 80.7241 14.7798 80.3855 15.124 80.0625L17.2416 78.0753C17.4516 77.8782 17.4526 77.6689 17.2444 77.4473C17.1404 77.3366 17.0245 77.2424 16.8967 77.1648L17.4808 76.6824C17.6487 76.7443 17.8203 76.8685 17.9956 77.0551C18.1544 77.2242 18.2647 77.406 18.3265 77.6003C18.3883 77.7946 18.3907 77.9899 18.3335 78.1861C18.2706 78.3879 18.1399 78.5818 17.9416 78.7679L17.8541 78.85L17.716 78.6505C18.0092 78.5069 18.3082 78.4513 18.6129 78.4835C18.9117 78.5212 19.1947 78.6122 19.4619 78.7564C19.7233 78.9061 19.9498 79.083 20.1415 79.2871C20.3825 79.5437 20.5633 79.8238 20.6839 80.1275C20.8046 80.4312 20.8404 80.7322 20.7913 81.0305C20.731 81.3285 20.5696 81.6007 20.307 81.847C19.9804 82.1536 19.6107 82.2976 19.198 82.2789C18.774 82.2599 18.3407 82.0906 17.8978 81.7711L15.9299 80.3595L16.5074 79.8176L18.1189 80.9548C18.4456 81.1857 18.7272 81.3219 18.9636 81.3633C19.2001 81.4047 19.4117 81.3379 19.5983 81.1627C19.7792 80.993 19.8622 80.7834 19.8474 80.534C19.8213 80.2842 19.6851 80.0281 19.4386 79.7657C19.2798 79.5966 19.1087 79.4554 18.9255 79.3421C18.7309 79.2285 18.5324 79.1515 18.3299 79.1112C18.1215 79.0763 17.9174 79.0868 17.7175 79.1428C17.5117 79.2042 17.3155 79.3225 17.1289 79.4977L15.9213 80.6309Z" fill="white"/>
<path d="M16.4402 75.2138L11.488 78.6013L11.0473 77.9578L11.7849 77.2933C11.3863 77.3624 11.0206 77.3169 10.688 77.1568C10.3508 76.99 10.0511 76.7152 9.78898 76.3324C9.73022 76.2466 9.67355 76.1496 9.61896 76.0416C9.55985 75.9269 9.52524 75.8198 9.51514 75.72L10.3331 75.3641C10.3564 75.4548 10.3908 75.5475 10.4364 75.6424C10.4819 75.7372 10.5589 75.8638 10.6674 76.0223C10.8075 76.2269 11.0093 76.3942 11.2728 76.5241C11.5318 76.6474 11.8309 76.6948 12.1701 76.6663C12.5027 76.6423 12.8539 76.5039 13.2236 76.2509L15.8978 74.4217L16.4402 75.2138Z" fill="white"/>
<path d="M12.3324 68.1703C12.544 68.6189 12.6264 69.0842 12.5796 69.5661C12.5327 70.0481 12.3524 70.5002 12.0385 70.9223C11.7173 71.3478 11.2637 71.6987 10.6775 71.975C10.0769 72.258 9.51041 72.3791 8.97805 72.3382C8.44569 72.2972 7.9788 72.1326 7.57738 71.8442C7.16873 71.5592 6.85858 71.1924 6.64696 70.7438C6.43533 70.2953 6.36849 69.8536 6.44646 69.4189C6.52101 68.9769 6.72446 68.6113 7.05679 68.322L7.18398 68.3947L3.44994 70.1546L3.04033 69.2864L10.9643 65.5517L11.3227 66.3114L10.0451 67.0064L9.92368 66.9177C10.266 66.8183 10.5954 66.8134 10.9119 66.903C11.2177 66.9888 11.4951 67.1455 11.744 67.3731C11.9895 67.5935 12.1856 67.8592 12.3324 68.1703ZM11.5316 68.4416C11.3678 68.0943 11.1393 67.835 10.8461 67.6636C10.5496 67.485 10.2097 67.402 9.82639 67.4146C9.43248 67.4234 9.01843 67.5301 8.58424 67.7347C8.17176 67.9291 7.85131 68.1686 7.62288 68.4532C7.39103 68.7305 7.25524 69.0333 7.21551 69.3615C7.17236 69.6826 7.22929 70.0095 7.38631 70.3423C7.64573 70.8922 8.03526 71.2304 8.55492 71.3569C9.07459 71.4834 9.64559 71.4 10.2679 71.1067C10.8903 70.8134 11.3196 70.4297 11.556 69.9557C11.7923 69.4817 11.7842 68.977 11.5316 68.4416Z" fill="white"/>
<path d="M8.5772 55.6519C8.65352 56.2148 8.59889 56.7348 8.41332 57.2121C8.22668 57.6814 7.92012 58.07 7.49364 58.3781C7.05923 58.6872 6.52096 58.8852 5.87882 58.9722C5.23669 59.0592 4.66906 59.0109 4.17594 58.8274C3.67489 58.6451 3.27247 58.3565 2.96867 57.9617C2.66487 57.5669 2.47589 57.096 2.40173 56.549C2.32649 55.9941 2.38146 55.5063 2.56662 55.0856C2.75071 54.657 3.03489 54.3117 3.41918 54.0498C3.79555 53.7889 4.23741 53.6241 4.74478 53.5554C4.87955 53.5371 5.00296 53.5245 5.11502 53.5173C5.22709 53.5102 5.32779 53.5087 5.41715 53.5128L6.06849 58.3168L5.2242 58.4312L4.62928 54.0433L4.79052 54.518C4.21973 54.5953 3.80124 54.8134 3.53506 55.1724C3.2678 55.5234 3.16857 55.9526 3.23735 56.46C3.29002 56.8485 3.42687 57.173 3.6479 57.4337C3.85992 57.6876 4.14713 57.8707 4.50951 57.983C4.86289 58.0886 5.27741 58.1091 5.75307 58.0447C6.2208 57.9813 6.61436 57.8473 6.93375 57.6426C7.25314 57.4378 7.48465 57.1804 7.6283 56.8703C7.76293 56.5534 7.80285 56.1928 7.74803 55.7885C7.68891 55.3525 7.55784 55.011 7.35482 54.764C7.15072 54.5091 6.89469 54.3177 6.58673 54.1899L6.92514 53.3811C7.2151 53.4953 7.47529 53.6578 7.70573 53.8688C7.93509 54.0718 8.12676 54.3244 8.28074 54.6265C8.42572 54.9217 8.52454 55.2635 8.5772 55.6519Z" fill="white"/>
<path d="M2.05071 50.3375L4.61211 48.6268L4.6979 48.5694L8.17939 46.2145L8.1435 47.3899L5.48395 49.1697L5.34871 49.2736L2.01408 51.537L2.05071 50.3375ZM2.18108 46.0675L5.31108 48.5401L5.30925 48.6001L8.04096 50.7484L8.0069 51.8638L4.64434 49.1441L4.64653 49.0721L2.14665 47.195L2.18108 46.0675Z" fill="white"/>
<path d="M10.8565 44.774L2.50785 43.0741L2.6756 42.251L4.12694 42.4608L3.93596 42.5566C3.68236 42.3988 3.47442 42.1973 3.31214 41.952C3.14202 41.7051 3.02772 41.4246 2.96924 41.1107C2.91077 40.7967 2.91588 40.4711 2.98458 40.1341C3.08203 39.6559 3.293 39.2417 3.6175 38.8914C3.94359 38.5332 4.35873 38.2789 4.86293 38.1285C5.36712 37.9781 5.94063 37.9683 6.58344 38.0992C7.21841 38.2285 7.74159 38.4656 8.15297 38.8107C8.55812 39.1462 8.84066 39.5426 9.0006 39.9997C9.16054 40.4568 9.19098 40.9283 9.09193 41.4143C8.99287 41.9004 8.78822 42.3036 8.47795 42.6242C8.16145 42.9353 7.803 43.1317 7.40261 43.2135L7.25019 43.06L11.0483 43.8333L10.8565 44.774ZM8.24964 41.3408C8.36787 40.7607 8.25591 40.2685 7.91378 39.8641C7.57324 39.4519 7.06589 39.1771 6.39172 39.0399C5.71756 38.9026 5.1439 38.9532 4.67077 39.1915C4.19923 39.4221 3.90514 39.8235 3.78852 40.3957C3.71183 40.772 3.7388 41.1204 3.86943 41.4409C3.99221 41.7598 4.20617 42.032 4.5113 42.2574C4.80859 42.4812 5.18458 42.6394 5.63925 42.732C6.08608 42.8229 6.49321 42.8283 6.86065 42.748C7.22969 42.6598 7.53623 42.4977 7.78029 42.2617C8.01811 42.0162 8.17456 41.7092 8.24964 41.3408Z" fill="white"/>
<path d="M2.2439 33.0308L9.02981 35.543C9.3149 35.6485 9.53317 35.6696 9.68463 35.6063C9.82858 35.5401 9.94364 35.3908 10.0298 35.1582C10.0854 35.0082 10.12 34.8803 10.1337 34.7744C10.1473 34.6686 10.1547 34.522 10.1558 34.3348L10.8893 34.7727C10.8974 34.9121 10.8863 35.0573 10.8559 35.2082C10.8331 35.3618 10.7939 35.5136 10.7383 35.6637C10.5688 36.1213 10.3185 36.4167 9.98753 36.5501C9.65934 36.676 9.24016 36.6445 8.73 36.4557L1.91033 33.931L2.2439 33.0308Z" fill="white"/>
<path d="M10.3346 27.1177C9.94196 26.902 9.58264 26.8415 9.25665 26.9363C8.92365 27.0272 8.65116 27.2654 8.43917 27.651C8.23875 28.0155 8.14979 28.3683 8.17231 28.7092C8.18781 29.0463 8.3381 29.3708 8.62317 29.6825L7.82666 30.1349C7.51108 29.779 7.33816 29.3463 7.30789 28.8368C7.27061 28.3235 7.40614 27.7864 7.71449 27.2256C7.92263 26.847 8.1781 26.5401 8.48092 26.3048C8.77672 26.0657 9.10603 25.9317 9.46883 25.9028C9.82849 25.863 10.2152 25.9568 10.6289 26.184L13.1742 27.5821C13.4266 27.7207 13.626 27.6569 13.7725 27.3905C13.8457 27.2573 13.8995 27.118 13.9338 26.9725L14.5733 27.3786C14.5663 27.5573 14.5012 27.7588 14.3779 27.9831C14.2661 28.1864 14.1273 28.3475 13.9615 28.4664C13.7957 28.5853 13.6107 28.6479 13.4063 28.6543C13.1949 28.6568 12.97 28.5926 12.7316 28.4617L12.6265 28.4039L12.7736 28.2109C13.0008 28.4453 13.1462 28.7122 13.2097 29.0118C13.2662 29.3075 13.2672 29.6047 13.2126 29.9033C13.1509 30.198 13.0527 30.4681 12.9178 30.7134C12.7482 31.0219 12.5376 31.2804 12.2859 31.4891C12.0343 31.6977 11.759 31.8248 11.46 31.8705C11.1578 31.9053 10.849 31.8361 10.5334 31.6628C10.1408 31.4471 9.88952 31.1402 9.7797 30.7422C9.66673 30.3333 9.69378 29.869 9.86087 29.3492L10.5954 27.0419L11.2896 27.4232L10.7059 29.3068C10.5871 29.6888 10.5446 29.9986 10.5783 30.2362C10.612 30.4738 10.7411 30.6542 10.9654 30.7774C11.1828 30.8968 11.4079 30.9109 11.6406 30.8197C11.8702 30.7176 12.0717 30.5088 12.2451 30.1934C12.3569 29.9901 12.4384 29.7838 12.4895 29.5746C12.5375 29.3545 12.5493 29.1419 12.5251 28.937C12.4938 28.7281 12.4207 28.5373 12.3057 28.3646C12.1837 28.1881 12.0105 28.0382 11.7861 27.9149L10.3346 27.1177Z" fill="white"/>
<path d="M10.2398 21.2623C10.1097 21.4348 9.95266 21.5368 9.76854 21.5684C9.58285 21.5887 9.40375 21.5339 9.23123 21.404C9.0587 21.274 8.95986 21.1194 8.93469 20.9402C8.90795 20.7498 8.95961 20.5683 9.08966 20.3959C9.21971 20.2234 9.37758 20.127 9.56327 20.1066C9.74739 20.075 9.92571 20.1243 10.0982 20.2542C10.2708 20.3842 10.3704 20.5444 10.3971 20.7348C10.4223 20.914 10.3698 21.0899 10.2398 21.2623ZM11.4489 21.5723L16.2412 25.1826L15.6632 25.9491L10.8709 22.3388L11.4489 21.5723Z" fill="white"/>
<path d="M18.6917 22.0397L14.4812 17.7651L15.0799 17.1759L16.0829 18.0745L15.8791 18.0899C15.7458 17.7721 15.6887 17.4691 15.7079 17.1808C15.7215 16.8868 15.7972 16.6103 15.9351 16.3512C16.0786 16.0865 16.2587 15.8476 16.4754 15.6343C16.7833 15.3313 17.1216 15.1162 17.4904 14.989C17.8536 14.8561 18.2272 14.8364 18.6112 14.9299C19.001 15.0177 19.3783 15.2469 19.7432 15.6174L22.4379 18.3531L21.7537 19.0264L19.2948 16.5301C18.8288 16.057 18.4033 15.8303 18.0184 15.85C17.6336 15.8583 17.2929 16.0083 16.9964 16.3001C16.7911 16.5021 16.6336 16.7526 16.5237 17.0515C16.4139 17.3504 16.3972 17.6754 16.4737 18.0267C16.5559 18.3723 16.7766 18.7275 17.1359 19.0923L19.3759 21.3663L18.6917 22.0397Z" fill="white"/>
<path d="M26.2858 15.6151C25.8182 15.9376 25.3296 16.124 24.8199 16.1742C24.3168 16.2199 23.8314 16.1223 23.3636 15.8812C22.8913 15.6336 22.4711 15.2431 22.103 14.7099C21.7348 14.1766 21.521 13.6486 21.4616 13.126C21.3976 12.5967 21.473 12.1074 21.6877 11.6581C21.9024 11.2087 22.237 10.8274 22.6914 10.514C23.1524 10.196 23.6124 10.0245 24.0715 9.99949C24.5371 9.9699 24.9737 10.0672 25.3813 10.2915C25.7843 10.5092 26.1312 10.8287 26.4221 11.25C26.4993 11.362 26.5665 11.4663 26.6235 11.563C26.6806 11.6597 26.7275 11.7488 26.7643 11.8303L22.7734 14.5827L22.2894 13.8816L25.9346 11.3676L25.5841 11.7259C25.2569 11.2519 24.8729 10.9774 24.4322 10.9023C23.9981 10.8227 23.5703 10.9282 23.1489 11.2189C22.8262 11.4414 22.5985 11.7102 22.466 12.0251C22.3355 12.3289 22.3021 12.6678 22.3658 13.0417C22.4316 13.4045 22.6008 13.7834 22.8735 14.1784C23.1416 14.5669 23.4393 14.8572 23.7664 15.0495C24.0936 15.2417 24.4279 15.3318 24.7695 15.3197C25.1132 15.2965 25.453 15.1691 25.7888 14.9375C26.151 14.6877 26.3964 14.4164 26.5249 14.1237C26.6599 13.8265 26.7148 13.5117 26.6895 13.1793L27.5641 13.1155C27.5935 13.4256 27.5662 13.7311 27.4822 14.032C27.4049 14.3283 27.2663 14.6134 27.0665 14.8872C26.8687 15.1499 26.6085 15.3926 26.2858 15.6151Z" fill="white"/>
<path d="M32.324 12.1496C31.8729 12.3557 31.4066 12.4324 30.925 12.3798C30.4435 12.3271 29.9935 12.1413 29.575 11.8224C29.1531 11.4962 28.8074 11.0384 28.5379 10.4491C28.2618 9.84526 28.1473 9.27749 28.1945 8.74581C28.2416 8.21414 28.4118 7.74941 28.7049 7.35164C28.9947 6.94659 29.3652 6.64101 29.8164 6.43491C30.2675 6.2288 30.71 6.16736 31.1439 6.25058C31.5851 6.33047 31.9485 6.53829 32.2339 6.87402L32.1597 7.00028L30.443 3.24617L31.3162 2.84725L34.9592 10.8138L34.1952 11.1629L33.5149 9.87729L33.605 9.75696C33.7005 10.1004 33.7015 10.4297 33.6082 10.745C33.5188 11.0497 33.3589 11.3251 33.1283 11.5711C32.905 11.8138 32.6369 12.0067 32.324 12.1496ZM32.062 11.3458C32.4113 11.1862 32.6734 10.961 32.8482 10.67C33.0303 10.3757 33.1173 10.037 33.1092 9.65367C33.105 9.25979 33.0031 8.84459 32.8035 8.40807C32.6138 7.99337 32.3781 7.67012 32.0961 7.43831C31.8215 7.20318 31.5202 7.06376 31.1923 7.02005C30.8717 6.97302 30.5441 7.02596 30.2093 7.17888C29.6563 7.43153 29.3135 7.81682 29.1809 8.33476C29.0483 8.8527 29.125 9.42452 29.4111 10.0502C29.6972 10.6759 30.076 11.1097 30.5473 11.3518C31.0187 11.5938 31.5236 11.5918 32.062 11.3458Z" fill="white"/>
<path d="M45.819 4.64102L45.9452 5.629L42.0171 6.13028L41.8909 5.14231L45.819 4.64102Z" fill="white"/>
</svg>
