<svg width="338" height="258" viewBox="0 0 338 258" fill="none" xmlns="http://www.w3.org/2000/svg">
<rect x="237" y="57" width="44" height="44" stroke="white" stroke-width="4"/>
<rect x="236" y="212" width="44" height="44" stroke="white" stroke-width="4"/>
<rect x="7" y="58" width="44" height="44" stroke="white" stroke-width="4"/>
<path d="M13.0735 6.44C14.7268 6.44 16.0228 6.89867 16.9615 7.816C17.9108 8.72267 18.3855 10.024 18.3855 11.72C18.3855 13.416 17.9108 14.7227 16.9615 15.64C16.0228 16.5467 14.7268 17 13.0735 17H9.6655V6.44H13.0735ZM13.2015 15.8C14.4068 15.8 15.3455 15.4427 16.0175 14.728C16.7002 14.0027 17.0415 13 17.0415 11.72C17.0415 10.44 16.7002 9.44267 16.0175 8.728C15.3455 8.00267 14.4068 7.64 13.2015 7.64H10.9455V15.8H13.2015ZM25.6288 11.832C25.6288 11.2347 25.4688 10.776 25.1488 10.456C24.8288 10.1253 24.3754 9.96 23.7888 9.96C23.2341 9.96 22.7648 10.0827 22.3808 10.328C21.9968 10.5627 21.7141 10.9467 21.5328 11.48L20.4928 10.84C20.7061 10.2427 21.1008 9.76267 21.6768 9.4C22.2528 9.02667 22.9674 8.84 23.8208 8.84C24.3968 8.84 24.9194 8.94133 25.3888 9.144C25.8581 9.336 26.2261 9.63467 26.4928 10.04C26.7701 10.4347 26.9088 10.9467 26.9088 11.576V15.448C26.9088 15.832 27.1114 16.024 27.5168 16.024C27.7194 16.024 27.9168 15.9973 28.1088 15.944L28.0448 16.952C27.8314 17.0587 27.5541 17.112 27.2128 17.112C26.9034 17.112 26.6261 17.0533 26.3808 16.936C26.1354 16.8187 25.9434 16.6427 25.8048 16.408C25.6661 16.1627 25.5968 15.8587 25.5968 15.496V15.336L25.9168 15.384C25.7888 15.8 25.5701 16.1413 25.2608 16.408C24.9514 16.664 24.6048 16.856 24.2208 16.984C23.8368 17.1013 23.4581 17.16 23.0848 17.16C22.6154 17.16 22.1781 17.08 21.7728 16.92C21.3674 16.76 21.0421 16.52 20.7968 16.2C20.5621 15.8693 20.4448 15.464 20.4448 14.984C20.4448 14.3867 20.6421 13.896 21.0368 13.512C21.4421 13.1173 22.0021 12.8507 22.7168 12.712L25.8848 12.088V13.144L23.3088 13.672C22.7861 13.7787 22.3968 13.928 22.1408 14.12C21.8848 14.312 21.7568 14.5787 21.7568 14.92C21.7568 15.2507 21.8848 15.5227 22.1408 15.736C22.4074 15.9387 22.7808 16.04 23.2608 16.04C23.5701 16.04 23.8634 16.0027 24.1408 15.928C24.4288 15.8427 24.6848 15.72 24.9088 15.56C25.1328 15.3893 25.3088 15.1813 25.4368 14.936C25.5648 14.68 25.6288 14.3813 25.6288 14.04V11.832ZM31.5948 6.728V14.792C31.5948 15.1867 31.7068 15.48 31.9308 15.672C32.1548 15.864 32.4428 15.96 32.7948 15.96C33.1041 15.96 33.3708 15.9067 33.5948 15.8C33.8188 15.6933 34.0214 15.5493 34.2028 15.368L34.6508 16.44C34.4054 16.664 34.1121 16.84 33.7708 16.968C33.4401 17.096 33.0561 17.16 32.6188 17.16C32.2134 17.16 31.8348 17.0907 31.4828 16.952C31.1308 16.8027 30.8481 16.5733 30.6348 16.264C30.4321 15.944 30.3254 15.528 30.3148 15.016V7.08L31.5948 6.728ZM34.5068 9V10.104H28.7148V9H34.5068ZM41.0819 11.832C41.0819 11.2347 40.9219 10.776 40.6019 10.456C40.2819 10.1253 39.8285 9.96 39.2419 9.96C38.6872 9.96 38.2179 10.0827 37.8339 10.328C37.4499 10.5627 37.1672 10.9467 36.9859 11.48L35.9459 10.84C36.1592 10.2427 36.5539 9.76267 37.1299 9.4C37.7059 9.02667 38.4205 8.84 39.2739 8.84C39.8499 8.84 40.3725 8.94133 40.8419 9.144C41.3112 9.336 41.6792 9.63467 41.9459 10.04C42.2232 10.4347 42.3619 10.9467 42.3619 11.576V15.448C42.3619 15.832 42.5645 16.024 42.9699 16.024C43.1725 16.024 43.3699 15.9973 43.5619 15.944L43.4979 16.952C43.2845 17.0587 43.0072 17.112 42.6659 17.112C42.3565 17.112 42.0792 17.0533 41.8339 16.936C41.5885 16.8187 41.3965 16.6427 41.2579 16.408C41.1192 16.1627 41.0499 15.8587 41.0499 15.496V15.336L41.3699 15.384C41.2419 15.8 41.0232 16.1413 40.7139 16.408C40.4045 16.664 40.0579 16.856 39.6739 16.984C39.2899 17.1013 38.9112 17.16 38.5379 17.16C38.0685 17.16 37.6312 17.08 37.2259 16.92C36.8205 16.76 36.4952 16.52 36.2499 16.2C36.0152 15.8693 35.8979 15.464 35.8979 14.984C35.8979 14.3867 36.0952 13.896 36.4899 13.512C36.8952 13.1173 37.4552 12.8507 38.1699 12.712L41.3379 12.088V13.144L38.7619 13.672C38.2392 13.7787 37.8499 13.928 37.5939 14.12C37.3379 14.312 37.2099 14.5787 37.2099 14.92C37.2099 15.2507 37.3379 15.5227 37.5939 15.736C37.8605 15.9387 38.2339 16.04 38.7139 16.04C39.0232 16.04 39.3165 16.0027 39.5939 15.928C39.8819 15.8427 40.1379 15.72 40.3619 15.56C40.5859 15.3893 40.7619 15.1813 40.8899 14.936C41.0179 14.68 41.0819 14.3813 41.0819 14.04V11.832ZM8.95275 30.28C9.95542 30.28 10.8194 30.504 11.5448 30.952C12.2808 31.3893 12.8461 32.0133 13.2408 32.824C13.6461 33.6347 13.8488 34.6 13.8488 35.72C13.8488 36.84 13.6461 37.8053 13.2408 38.616C12.8461 39.4267 12.2808 40.056 11.5448 40.504C10.8194 40.9413 9.95542 41.16 8.95275 41.16C7.95008 41.16 7.08075 40.9413 6.34475 40.504C5.61942 40.056 5.05408 39.4267 4.64875 38.616C4.25408 37.8053 4.05675 36.84 4.05675 35.72C4.05675 34.6 4.25408 33.6347 4.64875 32.824C5.05408 32.0133 5.61942 31.3893 6.34475 30.952C7.08075 30.504 7.95008 30.28 8.95275 30.28ZM8.95275 31.48C8.22742 31.48 7.59808 31.6507 7.06475 31.992C6.53142 32.3227 6.12075 32.808 5.83275 33.448C5.54475 34.0773 5.40075 34.8347 5.40075 35.72C5.40075 36.6053 5.54475 37.368 5.83275 38.008C6.12075 38.6373 6.53142 39.1227 7.06475 39.464C7.59808 39.7947 8.22742 39.96 8.95275 39.96C9.68875 39.96 10.3181 39.7947 10.8408 39.464C11.3741 39.1227 11.7848 38.6373 12.0728 38.008C12.3608 37.368 12.5048 36.6053 12.5048 35.72C12.5048 34.8347 12.3608 34.0773 12.0728 33.448C11.7848 32.808 11.3741 32.3227 10.8408 31.992C10.3181 31.6507 9.68875 31.48 8.95275 31.48ZM20.2674 41.16C19.8194 41.16 19.4034 41.08 19.0194 40.92C18.6354 40.76 18.3047 40.536 18.0274 40.248C17.75 39.96 17.542 39.6347 17.4034 39.272L17.5794 39.048L17.4674 41H16.3474V29.32H17.6274V34.808L17.4674 34.568C17.6807 34.0667 18.038 33.656 18.5394 33.336C19.0514 33.0053 19.6327 32.84 20.2834 32.84C20.9447 32.84 21.5527 33.0053 22.1074 33.336C22.662 33.6667 23.1047 34.1413 23.4354 34.76C23.766 35.3787 23.9314 36.1253 23.9314 37C23.9314 37.864 23.7607 38.6107 23.4194 39.24C23.0887 39.8587 22.646 40.3333 22.0914 40.664C21.5367 40.9947 20.9287 41.16 20.2674 41.16ZM20.1394 40.04C20.9287 40.04 21.542 39.7627 21.9794 39.208C22.4274 38.6533 22.6514 37.9173 22.6514 37C22.6514 36.0827 22.4327 35.3467 21.9954 34.792C21.558 34.2373 20.9447 33.96 20.1554 33.96C19.654 33.96 19.2114 34.088 18.8274 34.344C18.454 34.6 18.1607 34.9573 17.9474 35.416C17.734 35.8747 17.6274 36.4133 17.6274 37.032C17.6274 37.64 17.7287 38.1733 17.9314 38.632C18.1447 39.08 18.438 39.4267 18.8114 39.672C19.1954 39.9173 19.638 40.04 20.1394 40.04ZM27.0186 31.464C26.7306 31.464 26.496 31.3787 26.3146 31.208C26.144 31.0267 26.0586 30.792 26.0586 30.504C26.0586 30.216 26.144 29.9867 26.3146 29.816C26.496 29.6347 26.7306 29.544 27.0186 29.544C27.3066 29.544 27.536 29.6347 27.7066 29.816C27.888 29.9867 27.9786 30.216 27.9786 30.504C27.9786 30.792 27.888 31.0267 27.7066 31.208C27.536 31.3787 27.3066 31.464 27.0186 31.464ZM27.6586 33V41.816C27.6586 42.4773 27.5306 43 27.2746 43.384C27.0186 43.768 26.704 44.04 26.3306 44.2C25.9573 44.36 25.5893 44.44 25.2266 44.44C24.896 44.44 24.592 44.3867 24.3146 44.28C24.0373 44.184 23.808 44.0613 23.6266 43.912L23.8986 42.696C24.048 42.8347 24.2346 42.952 24.4586 43.048C24.6826 43.144 24.9333 43.192 25.2106 43.192C25.552 43.192 25.8293 43.08 26.0426 42.856C26.2666 42.632 26.3786 42.2427 26.3786 41.688V33H27.6586ZM33.9726 41.16C33.2153 41.16 32.538 40.9947 31.9406 40.664C31.354 40.3333 30.8953 39.8587 30.5646 39.24C30.234 38.6107 30.0686 37.864 30.0686 37C30.0686 36.136 30.234 35.3947 30.5646 34.776C30.8953 34.1467 31.3486 33.6667 31.9246 33.336C32.5006 33.0053 33.1566 32.84 33.8926 32.84C34.6393 32.84 35.274 33 35.7966 33.32C36.33 33.64 36.7353 34.0773 37.0126 34.632C37.29 35.176 37.4286 35.7893 37.4286 36.472C37.4286 36.6533 37.4233 36.8187 37.4126 36.968C37.402 37.1173 37.386 37.2507 37.3646 37.368H30.9006V36.232H36.8046L36.1486 36.36C36.1486 35.592 35.9353 35 35.5086 34.584C35.0926 34.168 34.5433 33.96 33.8606 33.96C33.338 33.96 32.8846 34.0827 32.5006 34.328C32.1273 34.5627 31.834 34.9093 31.6206 35.368C31.418 35.816 31.3166 36.36 31.3166 37C31.3166 37.6293 31.4233 38.1733 31.6366 38.632C31.85 39.0907 32.1486 39.4427 32.5326 39.688C32.9273 39.9227 33.3966 40.04 33.9406 40.04C34.5273 40.04 35.002 39.928 35.3646 39.704C35.738 39.48 36.0366 39.176 36.2606 38.792L37.2686 39.384C37.066 39.7467 36.8046 40.0613 36.4846 40.328C36.1753 40.5947 35.8073 40.8027 35.3806 40.952C34.9646 41.0907 34.4953 41.16 33.9726 41.16ZM43.175 32.84C43.7297 32.84 44.215 32.9253 44.631 33.096C45.0577 33.2667 45.4257 33.512 45.735 33.832C46.0443 34.152 46.295 34.5307 46.487 34.968L45.271 35.544C45.1003 35.032 44.839 34.6427 44.487 34.376C44.1457 34.0987 43.6977 33.96 43.143 33.96C42.6097 33.96 42.151 34.0827 41.767 34.328C41.383 34.5627 41.0897 34.9093 40.887 35.368C40.6843 35.816 40.583 36.36 40.583 37C40.583 37.6293 40.6843 38.1733 40.887 38.632C41.0897 39.0907 41.383 39.4427 41.767 39.688C42.151 39.9227 42.6097 40.04 43.143 40.04C43.559 40.04 43.9163 39.976 44.215 39.848C44.5243 39.72 44.775 39.5333 44.967 39.288C45.1697 39.0427 45.3083 38.744 45.383 38.392L46.567 38.808C46.3857 39.2987 46.135 39.72 45.815 40.072C45.5057 40.424 45.127 40.696 44.679 40.888C44.2417 41.0693 43.7403 41.16 43.175 41.16C42.4283 41.16 41.7617 40.9947 41.175 40.664C40.5883 40.3333 40.1297 39.8587 39.799 39.24C39.4683 38.6107 39.303 37.864 39.303 37C39.303 36.136 39.4683 35.3947 39.799 34.776C40.1297 34.1467 40.5883 33.6667 41.175 33.336C41.7617 33.0053 42.4283 32.84 43.175 32.84ZM50.7041 30.728V38.792C50.7041 39.1867 50.8161 39.48 51.0401 39.672C51.2641 39.864 51.5521 39.96 51.9041 39.96C52.2135 39.96 52.4801 39.9067 52.7041 39.8C52.9281 39.6933 53.1308 39.5493 53.3121 39.368L53.7601 40.44C53.5148 40.664 53.2215 40.84 52.8801 40.968C52.5495 41.096 52.1655 41.16 51.7281 41.16C51.3228 41.16 50.9441 41.0907 50.5921 40.952C50.2401 40.8027 49.9575 40.5733 49.7441 40.264C49.5415 39.944 49.4348 39.528 49.4241 39.016V31.08L50.7041 30.728ZM53.6161 33V34.104H47.8241V33H53.6161Z" fill="white"/>
<path d="M59.9393 78.9393C59.3536 79.5251 59.3536 80.4749 59.9393 81.0607L69.4853 90.6066C70.0711 91.1924 71.0208 91.1924 71.6066 90.6066C72.1924 90.0208 72.1924 89.0711 71.6066 88.4853L63.1213 80L71.6066 71.5147C72.1924 70.9289 72.1924 69.9792 71.6066 69.3934C71.0208 68.8076 70.0711 68.8076 69.4853 69.3934L59.9393 78.9393ZM222.061 81.0607C222.646 80.4749 222.646 79.5251 222.061 78.9393L212.515 69.3934C211.929 68.8076 210.979 68.8076 210.393 69.3934C209.808 69.9792 209.808 70.9289 210.393 71.5147L218.879 80L210.393 88.4853C209.808 89.0711 209.808 90.0208 210.393 90.6066C210.979 91.1924 211.929 91.1924 212.515 90.6066L222.061 81.0607ZM61 80V81.5H221V80V78.5H61V80Z" fill="white"/>
<path d="M256.939 200.061C257.525 200.646 258.475 200.646 259.061 200.061L268.607 190.515C269.192 189.929 269.192 188.979 268.607 188.393C268.021 187.808 267.071 187.808 266.485 188.393L258 196.879L249.515 188.393C248.929 187.808 247.979 187.808 247.393 188.393C246.808 188.979 246.808 189.929 247.393 190.515L256.939 200.061ZM259.061 113.939C258.475 113.354 257.525 113.354 256.939 113.939L247.393 123.485C246.808 124.071 246.808 125.021 247.393 125.607C247.979 126.192 248.929 126.192 249.515 125.607L258 117.121L266.485 125.607C267.071 126.192 268.021 126.192 268.607 125.607C269.192 125.021 269.192 124.071 268.607 123.485L259.061 113.939ZM258 199L259.5 199L259.5 115L258 115L256.5 115L256.5 199L258 199Z" fill="white"/>
<path d="M94.331 61.44C95.0457 61.44 95.6643 61.5733 96.187 61.84C96.7203 62.096 97.1363 62.464 97.435 62.944C97.7337 63.424 97.883 63.9947 97.883 64.656C97.883 65.3173 97.7337 65.888 97.435 66.368C97.1363 66.848 96.7203 67.2213 96.187 67.488C95.6643 67.744 95.0457 67.872 94.331 67.872H91.883V72H90.603V61.44H94.331ZM94.139 66.672C94.971 66.672 95.579 66.5013 95.963 66.16C96.347 65.808 96.539 65.3067 96.539 64.656C96.539 63.9947 96.347 63.4933 95.963 63.152C95.579 62.8107 94.971 62.64 94.139 62.64H91.883V66.672H94.139ZM100.129 72V64H101.169L101.345 65.312C101.569 64.8213 101.894 64.4533 102.321 64.208C102.758 63.9627 103.286 63.84 103.905 63.84C104.043 63.84 104.193 63.8507 104.353 63.872C104.523 63.8933 104.667 63.936 104.785 64L104.561 65.168C104.443 65.1253 104.315 65.0933 104.177 65.072C104.038 65.0507 103.841 65.04 103.585 65.04C103.254 65.04 102.918 65.136 102.577 65.328C102.246 65.52 101.969 65.8133 101.745 66.208C101.521 66.592 101.409 67.0827 101.409 67.68V72H100.129ZM109.754 72.16C108.997 72.16 108.319 71.9947 107.722 71.664C107.135 71.3333 106.677 70.8587 106.346 70.24C106.015 69.6107 105.85 68.864 105.85 68C105.85 67.136 106.015 66.3947 106.346 65.776C106.677 65.1467 107.13 64.6667 107.706 64.336C108.282 64.0053 108.938 63.84 109.674 63.84C110.421 63.84 111.055 64 111.578 64.32C112.111 64.64 112.517 65.0773 112.794 65.632C113.071 66.176 113.21 66.7893 113.21 67.472C113.21 67.6533 113.205 67.8187 113.194 67.968C113.183 68.1173 113.167 68.2507 113.146 68.368H106.682V67.232H112.586L111.93 67.36C111.93 66.592 111.717 66 111.29 65.584C110.874 65.168 110.325 64.96 109.642 64.96C109.119 64.96 108.666 65.0827 108.282 65.328C107.909 65.5627 107.615 65.9093 107.402 66.368C107.199 66.816 107.098 67.36 107.098 68C107.098 68.6293 107.205 69.1733 107.418 69.632C107.631 70.0907 107.93 70.4427 108.314 70.688C108.709 70.9227 109.178 71.04 109.722 71.04C110.309 71.04 110.783 70.928 111.146 70.704C111.519 70.48 111.818 70.176 112.042 69.792L113.05 70.384C112.847 70.7467 112.586 71.0613 112.266 71.328C111.957 71.5947 111.589 71.8027 111.162 71.952C110.746 72.0907 110.277 72.16 109.754 72.16ZM118.764 72.16C118.103 72.16 117.495 71.9947 116.94 71.664C116.386 71.3333 115.943 70.8587 115.612 70.24C115.282 69.6107 115.116 68.864 115.116 68C115.116 67.1147 115.292 66.3627 115.644 65.744C115.996 65.1253 116.46 64.656 117.036 64.336C117.612 64.0053 118.231 63.84 118.892 63.84C119.554 63.84 120.124 64.0107 120.604 64.352C121.095 64.6933 121.42 65.1467 121.58 65.712L121.42 65.824V60.32H122.7V72H121.58L121.468 70.064L121.644 69.968C121.57 70.4373 121.388 70.8373 121.1 71.168C120.823 71.488 120.476 71.7333 120.06 71.904C119.655 72.0747 119.223 72.16 118.764 72.16ZM118.892 71.04C119.404 71.04 119.847 70.912 120.22 70.656C120.604 70.4 120.898 70.0373 121.1 69.568C121.314 69.088 121.42 68.528 121.42 67.888C121.42 67.28 121.314 66.7573 121.1 66.32C120.898 65.8827 120.61 65.5467 120.236 65.312C119.874 65.0773 119.447 64.96 118.956 64.96C118.146 64.96 117.516 65.2373 117.068 65.792C116.62 66.3467 116.396 67.0827 116.396 68C116.396 68.9173 116.615 69.6533 117.052 70.208C117.49 70.7627 118.103 71.04 118.892 71.04ZM129.02 72.16C128.262 72.16 127.585 71.9947 126.988 71.664C126.401 71.3333 125.942 70.8587 125.612 70.24C125.281 69.6107 125.116 68.864 125.116 68C125.116 67.136 125.281 66.3947 125.612 65.776C125.942 65.1467 126.396 64.6667 126.972 64.336C127.548 64.0053 128.204 63.84 128.94 63.84C129.686 63.84 130.321 64 130.844 64.32C131.377 64.64 131.782 65.0773 132.06 65.632C132.337 66.176 132.476 66.7893 132.476 67.472C132.476 67.6533 132.47 67.8187 132.46 67.968C132.449 68.1173 132.433 68.2507 132.411 68.368H125.948V67.232H131.852L131.196 67.36C131.196 66.592 130.982 66 130.556 65.584C130.14 65.168 129.59 64.96 128.908 64.96C128.385 64.96 127.932 65.0827 127.548 65.328C127.174 65.5627 126.881 65.9093 126.668 66.368C126.465 66.816 126.364 67.36 126.364 68C126.364 68.6293 126.47 69.1733 126.684 69.632C126.897 70.0907 127.196 70.4427 127.58 70.688C127.974 70.9227 128.444 71.04 128.988 71.04C129.574 71.04 130.049 70.928 130.412 70.704C130.785 70.48 131.084 70.176 131.308 69.792L132.316 70.384C132.113 70.7467 131.852 71.0613 131.532 71.328C131.222 71.5947 130.854 71.8027 130.428 71.952C130.012 72.0907 129.542 72.16 129.02 72.16ZM138.222 63.84C138.777 63.84 139.262 63.9253 139.678 64.096C140.105 64.2667 140.473 64.512 140.782 64.832C141.091 65.152 141.342 65.5307 141.534 65.968L140.318 66.544C140.147 66.032 139.886 65.6427 139.534 65.376C139.193 65.0987 138.745 64.96 138.19 64.96C137.657 64.96 137.198 65.0827 136.814 65.328C136.43 65.5627 136.137 65.9093 135.934 66.368C135.731 66.816 135.63 67.36 135.63 68C135.63 68.6293 135.731 69.1733 135.934 69.632C136.137 70.0907 136.43 70.4427 136.814 70.688C137.198 70.9227 137.657 71.04 138.19 71.04C138.606 71.04 138.963 70.976 139.262 70.848C139.571 70.72 139.822 70.5333 140.014 70.288C140.217 70.0427 140.355 69.744 140.43 69.392L141.614 69.808C141.433 70.2987 141.182 70.72 140.862 71.072C140.553 71.424 140.174 71.696 139.726 71.888C139.289 72.0693 138.787 72.16 138.222 72.16C137.475 72.16 136.809 71.9947 136.222 71.664C135.635 71.3333 135.177 70.8587 134.846 70.24C134.515 69.6107 134.35 68.864 134.35 68C134.35 67.136 134.515 66.3947 134.846 65.776C135.177 65.1467 135.635 64.6667 136.222 64.336C136.809 64.0053 137.475 63.84 138.222 63.84ZM147.207 72.16C146.45 72.16 145.772 71.9947 145.175 71.664C144.588 71.3333 144.13 70.8587 143.799 70.24C143.468 69.6107 143.303 68.864 143.303 68C143.303 67.136 143.468 66.3947 143.799 65.776C144.13 65.1467 144.583 64.6667 145.159 64.336C145.735 64.0053 146.391 63.84 147.127 63.84C147.874 63.84 148.508 64 149.031 64.32C149.564 64.64 149.97 65.0773 150.247 65.632C150.524 66.176 150.663 66.7893 150.663 67.472C150.663 67.6533 150.658 67.8187 150.647 67.968C150.636 68.1173 150.62 68.2507 150.599 68.368H144.135V67.232H150.039L149.383 67.36C149.383 66.592 149.17 66 148.743 65.584C148.327 65.168 147.778 64.96 147.095 64.96C146.572 64.96 146.119 65.0827 145.735 65.328C145.362 65.5627 145.068 65.9093 144.855 66.368C144.652 66.816 144.551 67.36 144.551 68C144.551 68.6293 144.658 69.1733 144.871 69.632C145.084 70.0907 145.383 70.4427 145.767 70.688C146.162 70.9227 146.631 71.04 147.175 71.04C147.762 71.04 148.236 70.928 148.599 70.704C148.972 70.48 149.271 70.176 149.495 69.792L150.503 70.384C150.3 70.7467 150.039 71.0613 149.719 71.328C149.41 71.5947 149.042 71.8027 148.615 71.952C148.199 72.0907 147.73 72.16 147.207 72.16ZM155.977 72.16C155.199 72.16 154.479 71.9947 153.817 71.664C153.167 71.3333 152.665 70.864 152.313 70.256L153.401 69.472C153.636 69.9627 153.977 70.3467 154.425 70.624C154.884 70.9013 155.433 71.04 156.073 71.04C156.639 71.04 157.081 70.9333 157.401 70.72C157.721 70.496 157.881 70.208 157.881 69.856C157.881 69.632 157.807 69.4293 157.657 69.248C157.519 69.056 157.247 68.9173 156.841 68.832L154.921 68.432C154.143 68.272 153.583 68.0053 153.241 67.632C152.911 67.2587 152.745 66.7947 152.745 66.24C152.745 65.8027 152.868 65.4027 153.113 65.04C153.369 64.6773 153.727 64.3893 154.185 64.176C154.655 63.952 155.204 63.84 155.833 63.84C156.623 63.84 157.289 63.9947 157.833 64.304C158.377 64.6133 158.783 65.0507 159.049 65.616L157.977 66.32C157.796 65.8507 157.503 65.5093 157.097 65.296C156.692 65.072 156.271 64.96 155.833 64.96C155.449 64.96 155.119 65.0133 154.841 65.12C154.575 65.2267 154.367 65.376 154.217 65.568C154.079 65.7493 154.009 65.9573 154.009 66.192C154.009 66.4267 154.089 66.6453 154.249 66.848C154.409 67.04 154.708 67.1787 155.145 67.264L157.145 67.68C157.892 67.8293 158.415 68.0747 158.713 68.416C159.012 68.7573 159.161 69.1733 159.161 69.664C159.161 70.1653 159.028 70.608 158.761 70.992C158.495 71.3653 158.121 71.6533 157.641 71.856C157.161 72.0587 156.607 72.16 155.977 72.16ZM164.415 72.16C163.636 72.16 162.916 71.9947 162.255 71.664C161.604 71.3333 161.103 70.864 160.751 70.256L161.839 69.472C162.074 69.9627 162.415 70.3467 162.863 70.624C163.322 70.9013 163.871 71.04 164.511 71.04C165.076 71.04 165.519 70.9333 165.839 70.72C166.159 70.496 166.319 70.208 166.319 69.856C166.319 69.632 166.244 69.4293 166.095 69.248C165.956 69.056 165.684 68.9173 165.279 68.832L163.359 68.432C162.58 68.272 162.02 68.0053 161.679 67.632C161.348 67.2587 161.183 66.7947 161.183 66.24C161.183 65.8027 161.306 65.4027 161.551 65.04C161.807 64.6773 162.164 64.3893 162.623 64.176C163.092 63.952 163.642 63.84 164.271 63.84C165.06 63.84 165.727 63.9947 166.271 64.304C166.815 64.6133 167.22 65.0507 167.487 65.616L166.415 66.32C166.234 65.8507 165.94 65.5093 165.535 65.296C165.13 65.072 164.708 64.96 164.271 64.96C163.887 64.96 163.556 65.0133 163.279 65.12C163.012 65.2267 162.804 65.376 162.655 65.568C162.516 65.7493 162.447 65.9573 162.447 66.192C162.447 66.4267 162.527 66.6453 162.687 66.848C162.847 67.04 163.146 67.1787 163.583 67.264L165.583 67.68C166.33 67.8293 166.852 68.0747 167.151 68.416C167.45 68.7573 167.599 69.1733 167.599 69.664C167.599 70.1653 167.466 70.608 167.199 70.992C166.932 71.3653 166.559 71.6533 166.079 71.856C165.599 72.0587 165.044 72.16 164.415 72.16ZM173.284 63.84C174.042 63.84 174.708 64.0053 175.284 64.336C175.871 64.6667 176.33 65.1467 176.66 65.776C176.991 66.3947 177.156 67.136 177.156 68C177.156 68.864 176.991 69.6107 176.66 70.24C176.33 70.8587 175.871 71.3333 175.284 71.664C174.708 71.9947 174.042 72.16 173.284 72.16C172.538 72.16 171.871 71.9947 171.284 71.664C170.698 71.3333 170.239 70.8587 169.908 70.24C169.578 69.6107 169.412 68.864 169.412 68C169.412 67.136 169.578 66.3947 169.908 65.776C170.239 65.1467 170.698 64.6667 171.284 64.336C171.871 64.0053 172.538 63.84 173.284 63.84ZM173.284 64.944C172.74 64.944 172.276 65.0667 171.892 65.312C171.508 65.5573 171.21 65.9093 170.996 66.368C170.794 66.816 170.692 67.36 170.692 68C170.692 68.6293 170.794 69.1733 170.996 69.632C171.21 70.0907 171.508 70.4427 171.892 70.688C172.276 70.9333 172.74 71.056 173.284 71.056C173.828 71.056 174.292 70.9333 174.676 70.688C175.06 70.4427 175.354 70.0907 175.556 69.632C175.77 69.1733 175.876 68.6293 175.876 68C175.876 67.36 175.77 66.816 175.556 66.368C175.354 65.9093 175.06 65.5573 174.676 65.312C174.292 65.0667 173.828 64.944 173.284 64.944ZM179.566 72V64H180.606L180.782 65.312C181.006 64.8213 181.331 64.4533 181.758 64.208C182.195 63.9627 182.723 63.84 183.342 63.84C183.481 63.84 183.63 63.8507 183.79 63.872C183.961 63.8933 184.105 63.936 184.222 64L183.998 65.168C183.881 65.1253 183.753 65.0933 183.614 65.072C183.475 65.0507 183.278 65.04 183.022 65.04C182.691 65.04 182.355 65.136 182.014 65.328C181.683 65.52 181.406 65.8133 181.182 66.208C180.958 66.592 180.846 67.0827 180.846 67.68V72H179.566ZM196.232 60.32L191.336 73.12H190.136L195.032 60.32H196.232ZM110.526 85.28C111.454 85.28 112.254 85.472 112.926 85.856C113.598 86.2293 114.158 86.784 114.606 87.52L113.534 88.352C113.14 87.6693 112.692 87.1893 112.19 86.912C111.7 86.624 111.102 86.48 110.398 86.48C109.833 86.48 109.364 86.56 108.99 86.72C108.628 86.88 108.361 87.0933 108.19 87.36C108.02 87.616 107.934 87.9093 107.934 88.24C107.934 88.6133 108.052 88.944 108.286 89.232C108.521 89.5093 108.99 89.728 109.694 89.888L111.982 90.4C112.996 90.624 113.7 90.9653 114.094 91.424C114.5 91.872 114.702 92.432 114.702 93.104C114.702 93.7013 114.532 94.2347 114.19 94.704C113.86 95.1627 113.39 95.52 112.782 95.776C112.174 96.032 111.46 96.16 110.638 96.16C109.87 96.16 109.193 96.0587 108.606 95.856C108.03 95.6427 107.534 95.36 107.118 95.008C106.702 94.656 106.361 94.2613 106.094 93.824L107.214 92.912C107.417 93.3173 107.678 93.6747 107.998 93.984C108.318 94.2933 108.702 94.5333 109.15 94.704C109.609 94.8747 110.132 94.96 110.718 94.96C111.262 94.96 111.732 94.896 112.126 94.768C112.532 94.6293 112.841 94.432 113.054 94.176C113.268 93.9093 113.374 93.5893 113.374 93.216C113.374 92.8747 113.262 92.5707 113.038 92.304C112.814 92.0267 112.393 91.8187 111.774 91.68L109.294 91.12C108.644 90.9707 108.116 90.768 107.71 90.512C107.316 90.2453 107.028 89.936 106.846 89.584C106.676 89.2213 106.59 88.832 106.59 88.416C106.59 87.8507 106.745 87.3333 107.054 86.864C107.374 86.384 107.828 86 108.414 85.712C109.012 85.424 109.716 85.28 110.526 85.28ZM119.962 96.16C119.45 96.16 118.965 96.064 118.506 95.872C118.058 95.68 117.69 95.3707 117.402 94.944C117.125 94.5067 116.986 93.9413 116.986 93.248V88H118.266V92.912C118.266 93.7227 118.442 94.2827 118.794 94.592C119.146 94.8907 119.642 95.04 120.282 95.04C120.581 95.04 120.874 94.992 121.162 94.896C121.45 94.7893 121.706 94.6293 121.93 94.416C122.165 94.192 122.346 93.9093 122.474 93.568C122.613 93.2267 122.682 92.8213 122.682 92.352V88H123.962V96H122.842L122.762 94.784C122.485 95.264 122.106 95.616 121.626 95.84C121.157 96.0533 120.602 96.16 119.962 96.16ZM130.253 87.84C130.808 87.84 131.293 87.9253 131.709 88.096C132.136 88.2667 132.504 88.512 132.813 88.832C133.122 89.152 133.373 89.5307 133.565 89.968L132.349 90.544C132.178 90.032 131.917 89.6427 131.565 89.376C131.224 89.0987 130.776 88.96 130.221 88.96C129.688 88.96 129.229 89.0827 128.845 89.328C128.461 89.5627 128.168 89.9093 127.965 90.368C127.762 90.816 127.661 91.36 127.661 92C127.661 92.6293 127.762 93.1733 127.965 93.632C128.168 94.0907 128.461 94.4427 128.845 94.688C129.229 94.9227 129.688 95.04 130.221 95.04C130.637 95.04 130.994 94.976 131.293 94.848C131.602 94.72 131.853 94.5333 132.045 94.288C132.248 94.0427 132.386 93.744 132.461 93.392L133.645 93.808C133.464 94.2987 133.213 94.72 132.893 95.072C132.584 95.424 132.205 95.696 131.757 95.888C131.32 96.0693 130.818 96.16 130.253 96.16C129.506 96.16 128.84 95.9947 128.253 95.664C127.666 95.3333 127.208 94.8587 126.877 94.24C126.546 93.6107 126.381 92.864 126.381 92C126.381 91.136 126.546 90.3947 126.877 89.776C127.208 89.1467 127.666 88.6667 128.253 88.336C128.84 88.0053 129.506 87.84 130.253 87.84ZM139.206 87.84C139.761 87.84 140.246 87.9253 140.662 88.096C141.089 88.2667 141.457 88.512 141.766 88.832C142.076 89.152 142.326 89.5307 142.518 89.968L141.302 90.544C141.132 90.032 140.87 89.6427 140.518 89.376C140.177 89.0987 139.729 88.96 139.174 88.96C138.641 88.96 138.182 89.0827 137.798 89.328C137.414 89.5627 137.121 89.9093 136.918 90.368C136.716 90.816 136.614 91.36 136.614 92C136.614 92.6293 136.716 93.1733 136.918 93.632C137.121 94.0907 137.414 94.4427 137.798 94.688C138.182 94.9227 138.641 95.04 139.174 95.04C139.59 95.04 139.948 94.976 140.246 94.848C140.556 94.72 140.806 94.5333 140.998 94.288C141.201 94.0427 141.34 93.744 141.414 93.392L142.598 93.808C142.417 94.2987 142.166 94.72 141.846 95.072C141.537 95.424 141.158 95.696 140.71 95.888C140.273 96.0693 139.772 96.16 139.206 96.16C138.46 96.16 137.793 95.9947 137.206 95.664C136.62 95.3333 136.161 94.8587 135.83 94.24C135.5 93.6107 135.334 92.864 135.334 92C135.334 91.136 135.5 90.3947 135.83 89.776C136.161 89.1467 136.62 88.6667 137.206 88.336C137.793 88.0053 138.46 87.84 139.206 87.84ZM148.191 96.16C147.434 96.16 146.757 95.9947 146.159 95.664C145.573 95.3333 145.114 94.8587 144.783 94.24C144.453 93.6107 144.287 92.864 144.287 92C144.287 91.136 144.453 90.3947 144.783 89.776C145.114 89.1467 145.567 88.6667 146.143 88.336C146.719 88.0053 147.375 87.84 148.111 87.84C148.858 87.84 149.493 88 150.015 88.32C150.549 88.64 150.954 89.0773 151.231 89.632C151.509 90.176 151.647 90.7893 151.647 91.472C151.647 91.6533 151.642 91.8187 151.631 91.968C151.621 92.1173 151.605 92.2507 151.583 92.368H145.119V91.232H151.023L150.367 91.36C150.367 90.592 150.154 90 149.727 89.584C149.311 89.168 148.762 88.96 148.079 88.96C147.557 88.96 147.103 89.0827 146.719 89.328C146.346 89.5627 146.053 89.9093 145.839 90.368C145.637 90.816 145.535 91.36 145.535 92C145.535 92.6293 145.642 93.1733 145.855 93.632C146.069 94.0907 146.367 94.4427 146.751 94.688C147.146 94.9227 147.615 95.04 148.159 95.04C148.746 95.04 149.221 94.928 149.583 94.704C149.957 94.48 150.255 94.176 150.479 93.792L151.487 94.384C151.285 94.7467 151.023 95.0613 150.703 95.328C150.394 95.5947 150.026 95.8027 149.599 95.952C149.183 96.0907 148.714 96.16 148.191 96.16ZM156.962 96.16C156.183 96.16 155.463 95.9947 154.802 95.664C154.151 95.3333 153.65 94.864 153.298 94.256L154.386 93.472C154.62 93.9627 154.962 94.3467 155.41 94.624C155.868 94.9013 156.418 95.04 157.058 95.04C157.623 95.04 158.066 94.9333 158.386 94.72C158.706 94.496 158.866 94.208 158.866 93.856C158.866 93.632 158.791 93.4293 158.642 93.248C158.503 93.056 158.231 92.9173 157.826 92.832L155.906 92.432C155.127 92.272 154.567 92.0053 154.226 91.632C153.895 91.2587 153.73 90.7947 153.73 90.24C153.73 89.8027 153.852 89.4027 154.098 89.04C154.354 88.6773 154.711 88.3893 155.17 88.176C155.639 87.952 156.188 87.84 156.818 87.84C157.607 87.84 158.274 87.9947 158.818 88.304C159.362 88.6133 159.767 89.0507 160.034 89.616L158.962 90.32C158.78 89.8507 158.487 89.5093 158.082 89.296C157.676 89.072 157.255 88.96 156.818 88.96C156.434 88.96 156.103 89.0133 155.826 89.12C155.559 89.2267 155.351 89.376 155.202 89.568C155.063 89.7493 154.994 89.9573 154.994 90.192C154.994 90.4267 155.074 90.6453 155.234 90.848C155.394 91.04 155.692 91.1787 156.13 91.264L158.13 91.68C158.876 91.8293 159.399 92.0747 159.698 92.416C159.996 92.7573 160.146 93.1733 160.146 93.664C160.146 94.1653 160.012 94.608 159.746 94.992C159.479 95.3653 159.106 95.6533 158.626 95.856C158.146 96.0587 157.591 96.16 156.962 96.16ZM165.399 96.16C164.621 96.16 163.901 95.9947 163.239 95.664C162.589 95.3333 162.087 94.864 161.735 94.256L162.823 93.472C163.058 93.9627 163.399 94.3467 163.847 94.624C164.306 94.9013 164.855 95.04 165.495 95.04C166.061 95.04 166.503 94.9333 166.823 94.72C167.143 94.496 167.303 94.208 167.303 93.856C167.303 93.632 167.229 93.4293 167.079 93.248C166.941 93.056 166.669 92.9173 166.263 92.832L164.343 92.432C163.565 92.272 163.005 92.0053 162.663 91.632C162.333 91.2587 162.167 90.7947 162.167 90.24C162.167 89.8027 162.29 89.4027 162.535 89.04C162.791 88.6773 163.149 88.3893 163.607 88.176C164.077 87.952 164.626 87.84 165.255 87.84C166.045 87.84 166.711 87.9947 167.255 88.304C167.799 88.6133 168.205 89.0507 168.471 89.616L167.399 90.32C167.218 89.8507 166.925 89.5093 166.519 89.296C166.114 89.072 165.693 88.96 165.255 88.96C164.871 88.96 164.541 89.0133 164.263 89.12C163.997 89.2267 163.789 89.376 163.639 89.568C163.501 89.7493 163.431 89.9573 163.431 90.192C163.431 90.4267 163.511 90.6453 163.671 90.848C163.831 91.04 164.13 91.1787 164.567 91.264L166.567 91.68C167.314 91.8293 167.837 92.0747 168.135 92.416C168.434 92.7573 168.583 93.1733 168.583 93.664C168.583 94.1653 168.45 94.608 168.183 94.992C167.917 95.3653 167.543 95.6533 167.063 95.856C166.583 96.0587 166.029 96.16 165.399 96.16ZM174.269 87.84C175.026 87.84 175.693 88.0053 176.269 88.336C176.855 88.6667 177.314 89.1467 177.645 89.776C177.975 90.3947 178.141 91.136 178.141 92C178.141 92.864 177.975 93.6107 177.645 94.24C177.314 94.8587 176.855 95.3333 176.269 95.664C175.693 95.9947 175.026 96.16 174.269 96.16C173.522 96.16 172.855 95.9947 172.269 95.664C171.682 95.3333 171.223 94.8587 170.893 94.24C170.562 93.6107 170.397 92.864 170.397 92C170.397 91.136 170.562 90.3947 170.893 89.776C171.223 89.1467 171.682 88.6667 172.269 88.336C172.855 88.0053 173.522 87.84 174.269 87.84ZM174.269 88.944C173.725 88.944 173.261 89.0667 172.877 89.312C172.493 89.5573 172.194 89.9093 171.981 90.368C171.778 90.816 171.677 91.36 171.677 92C171.677 92.6293 171.778 93.1733 171.981 93.632C172.194 94.0907 172.493 94.4427 172.877 94.688C173.261 94.9333 173.725 95.056 174.269 95.056C174.813 95.056 175.277 94.9333 175.661 94.688C176.045 94.4427 176.338 94.0907 176.541 93.632C176.754 93.1733 176.861 92.6293 176.861 92C176.861 91.36 176.754 90.816 176.541 90.368C176.338 89.9093 176.045 89.5573 175.661 89.312C175.277 89.0667 174.813 88.944 174.269 88.944ZM180.551 96V88H181.591L181.767 89.312C181.991 88.8213 182.316 88.4533 182.743 88.208C183.18 87.9627 183.708 87.84 184.327 87.84C184.465 87.84 184.615 87.8507 184.775 87.872C184.945 87.8933 185.089 87.936 185.207 88L184.983 89.168C184.865 89.1253 184.737 89.0933 184.599 89.072C184.46 89.0507 184.263 89.04 184.007 89.04C183.676 89.04 183.34 89.136 182.999 89.328C182.668 89.52 182.391 89.8133 182.167 90.208C181.943 90.592 181.831 91.0827 181.831 91.68V96H180.551Z" fill="white"/>
<path d="M275.456 140.44C276.171 140.44 276.789 140.573 277.312 140.84C277.845 141.096 278.261 141.464 278.56 141.944C278.859 142.424 279.008 142.995 279.008 143.656C279.008 144.317 278.859 144.888 278.56 145.368C278.261 145.848 277.845 146.221 277.312 146.488C276.789 146.744 276.171 146.872 275.456 146.872H273.008V151H271.728V140.44H275.456ZM275.264 145.672C276.096 145.672 276.704 145.501 277.088 145.16C277.472 144.808 277.664 144.307 277.664 143.656C277.664 142.995 277.472 142.493 277.088 142.152C276.704 141.811 276.096 141.64 275.264 141.64H273.008V145.672H275.264ZM285.926 145.832C285.926 145.235 285.766 144.776 285.446 144.456C285.126 144.125 284.672 143.96 284.086 143.96C283.531 143.96 283.062 144.083 282.678 144.328C282.294 144.563 282.011 144.947 281.83 145.48L280.79 144.84C281.003 144.243 281.398 143.763 281.974 143.4C282.55 143.027 283.264 142.84 284.118 142.84C284.694 142.84 285.216 142.941 285.686 143.144C286.155 143.336 286.523 143.635 286.79 144.04C287.067 144.435 287.206 144.947 287.206 145.576V149.448C287.206 149.832 287.408 150.024 287.814 150.024C288.016 150.024 288.214 149.997 288.406 149.944L288.342 150.952C288.128 151.059 287.851 151.112 287.51 151.112C287.2 151.112 286.923 151.053 286.678 150.936C286.432 150.819 286.24 150.643 286.102 150.408C285.963 150.163 285.894 149.859 285.894 149.496V149.336L286.214 149.384C286.086 149.8 285.867 150.141 285.558 150.408C285.248 150.664 284.902 150.856 284.518 150.984C284.134 151.101 283.755 151.16 283.382 151.16C282.912 151.16 282.475 151.08 282.07 150.92C281.664 150.76 281.339 150.52 281.094 150.2C280.859 149.869 280.742 149.464 280.742 148.984C280.742 148.387 280.939 147.896 281.334 147.512C281.739 147.117 282.299 146.851 283.014 146.712L286.182 146.088V147.144L283.606 147.672C283.083 147.779 282.694 147.928 282.438 148.12C282.182 148.312 282.054 148.579 282.054 148.92C282.054 149.251 282.182 149.523 282.438 149.736C282.704 149.939 283.078 150.04 283.558 150.04C283.867 150.04 284.16 150.003 284.438 149.928C284.726 149.843 284.982 149.72 285.206 149.56C285.43 149.389 285.606 149.181 285.734 148.936C285.862 148.68 285.926 148.381 285.926 148.04V145.832ZM290.316 151V143H291.356L291.532 144.312C291.756 143.821 292.081 143.453 292.508 143.208C292.945 142.963 293.473 142.84 294.092 142.84C294.231 142.84 294.38 142.851 294.54 142.872C294.711 142.893 294.855 142.936 294.972 143L294.748 144.168C294.631 144.125 294.503 144.093 294.364 144.072C294.225 144.051 294.028 144.04 293.772 144.04C293.441 144.04 293.105 144.136 292.764 144.328C292.433 144.52 292.156 144.813 291.932 145.208C291.708 145.592 291.596 146.083 291.596 146.68V151H290.316ZM299.941 151.16C299.184 151.16 298.507 150.995 297.909 150.664C297.323 150.333 296.864 149.859 296.533 149.24C296.203 148.611 296.037 147.864 296.037 147C296.037 146.136 296.203 145.395 296.533 144.776C296.864 144.147 297.317 143.667 297.893 143.336C298.469 143.005 299.125 142.84 299.861 142.84C300.608 142.84 301.243 143 301.765 143.32C302.299 143.64 302.704 144.077 302.981 144.632C303.259 145.176 303.397 145.789 303.397 146.472C303.397 146.653 303.392 146.819 303.381 146.968C303.371 147.117 303.355 147.251 303.333 147.368H296.869V146.232H302.773L302.117 146.36C302.117 145.592 301.904 145 301.477 144.584C301.061 144.168 300.512 143.96 299.829 143.96C299.307 143.96 298.853 144.083 298.469 144.328C298.096 144.563 297.803 144.909 297.589 145.368C297.387 145.816 297.285 146.36 297.285 147C297.285 147.629 297.392 148.173 297.605 148.632C297.819 149.091 298.117 149.443 298.501 149.688C298.896 149.923 299.365 150.04 299.909 150.04C300.496 150.04 300.971 149.928 301.333 149.704C301.707 149.48 302.005 149.176 302.229 148.792L303.237 149.384C303.035 149.747 302.773 150.061 302.453 150.328C302.144 150.595 301.776 150.803 301.349 150.952C300.933 151.091 300.464 151.16 299.941 151.16ZM305.832 151V143H306.952L307.064 144.792L306.856 144.616C307.026 144.189 307.256 143.848 307.544 143.592C307.832 143.325 308.162 143.133 308.536 143.016C308.92 142.899 309.314 142.84 309.72 142.84C310.296 142.84 310.818 142.952 311.288 143.176C311.757 143.389 312.13 143.72 312.408 144.168C312.696 144.616 312.84 145.187 312.84 145.88V151H311.56V146.328C311.56 145.443 311.368 144.829 310.984 144.488C310.61 144.136 310.146 143.96 309.592 143.96C309.208 143.96 308.824 144.051 308.44 144.232C308.056 144.413 307.736 144.707 307.48 145.112C307.234 145.517 307.112 146.061 307.112 146.744V151H305.832ZM317.517 140.728V148.792C317.517 149.187 317.629 149.48 317.853 149.672C318.077 149.864 318.365 149.96 318.717 149.96C319.026 149.96 319.293 149.907 319.517 149.8C319.741 149.693 319.943 149.549 320.125 149.368L320.573 150.44C320.327 150.664 320.034 150.84 319.693 150.968C319.362 151.096 318.978 151.16 318.541 151.16C318.135 151.16 317.757 151.091 317.405 150.952C317.053 150.803 316.77 150.573 316.557 150.264C316.354 149.944 316.247 149.528 316.237 149.016V141.08L317.517 140.728ZM320.429 143V144.104H314.637V143H320.429ZM332.841 139.32L327.945 152.12H326.745L331.641 139.32H332.841ZM280.24 172.296C280.016 172.893 279.696 173.411 279.28 173.848C278.864 174.275 278.373 174.6 277.808 174.824C277.253 175.048 276.645 175.16 275.984 175.16C274.981 175.16 274.112 174.941 273.376 174.504C272.651 174.056 272.085 173.427 271.68 172.616C271.285 171.805 271.088 170.84 271.088 169.72C271.088 168.6 271.285 167.635 271.68 166.824C272.085 166.013 272.651 165.389 273.376 164.952C274.112 164.504 274.971 164.28 275.952 164.28C276.635 164.28 277.243 164.376 277.776 164.568C278.309 164.749 278.763 165.027 279.136 165.4C279.52 165.763 279.824 166.211 280.048 166.744L278.784 167.336C278.549 166.728 278.208 166.269 277.76 165.96C277.323 165.64 276.752 165.48 276.048 165.48C275.333 165.48 274.704 165.651 274.16 165.992C273.616 166.323 273.189 166.803 272.88 167.432C272.581 168.061 272.432 168.824 272.432 169.72C272.432 170.605 272.576 171.368 272.864 172.008C273.152 172.637 273.563 173.123 274.096 173.464C274.629 173.795 275.259 173.96 275.984 173.96C276.688 173.96 277.301 173.784 277.824 173.432C278.347 173.069 278.725 172.531 278.96 171.816L280.24 172.296ZM282.457 175V163.32H283.737V168.2C284.014 167.72 284.382 167.373 284.841 167.16C285.299 166.947 285.801 166.84 286.345 166.84C286.921 166.84 287.443 166.952 287.913 167.176C288.382 167.389 288.755 167.72 289.033 168.168C289.321 168.616 289.465 169.187 289.465 169.88V175H288.185V170.328C288.185 169.443 287.993 168.829 287.609 168.488C287.235 168.136 286.771 167.96 286.217 167.96C285.833 167.96 285.449 168.051 285.065 168.232C284.681 168.413 284.361 168.712 284.105 169.128C283.859 169.533 283.737 170.077 283.737 170.76V175H282.457ZM293.003 165.464C292.715 165.464 292.48 165.379 292.299 165.208C292.128 165.027 292.043 164.792 292.043 164.504C292.043 164.216 292.128 163.987 292.299 163.816C292.48 163.635 292.715 163.544 293.003 163.544C293.291 163.544 293.52 163.635 293.691 163.816C293.872 163.987 293.963 164.216 293.963 164.504C293.963 164.792 293.872 165.027 293.691 165.208C293.52 165.379 293.291 165.464 293.003 165.464ZM293.643 167V175H292.363V167H293.643ZM297.829 163.32V172.968C297.829 173.373 297.904 173.656 298.053 173.816C298.202 173.965 298.442 174.04 298.773 174.04C298.986 174.04 299.162 174.024 299.301 173.992C299.44 173.96 299.626 173.901 299.861 173.816L299.653 174.936C299.482 175.011 299.296 175.064 299.093 175.096C298.89 175.139 298.682 175.16 298.469 175.16C297.818 175.16 297.333 174.984 297.013 174.632C296.704 174.28 296.549 173.741 296.549 173.016V163.32H297.829ZM304.624 175.16C303.962 175.16 303.354 174.995 302.8 174.664C302.245 174.333 301.802 173.859 301.472 173.24C301.141 172.611 300.976 171.864 300.976 171C300.976 170.115 301.152 169.363 301.504 168.744C301.856 168.125 302.32 167.656 302.896 167.336C303.472 167.005 304.09 166.84 304.752 166.84C305.413 166.84 305.984 167.011 306.464 167.352C306.954 167.693 307.28 168.147 307.44 168.712L307.28 168.824V163.32H308.56V175H307.44L307.328 173.064L307.504 172.968C307.429 173.437 307.248 173.837 306.96 174.168C306.682 174.488 306.336 174.733 305.92 174.904C305.514 175.075 305.082 175.16 304.624 175.16ZM304.752 174.04C305.264 174.04 305.706 173.912 306.08 173.656C306.464 173.4 306.757 173.037 306.96 172.568C307.173 172.088 307.28 171.528 307.28 170.888C307.28 170.28 307.173 169.757 306.96 169.32C306.757 168.883 306.469 168.547 306.096 168.312C305.733 168.077 305.306 167.96 304.816 167.96C304.005 167.96 303.376 168.237 302.928 168.792C302.48 169.347 302.256 170.083 302.256 171C302.256 171.917 302.474 172.653 302.912 173.208C303.349 173.763 303.962 174.04 304.752 174.04Z" fill="white"/>
</svg>
