<svg width="316" height="199" viewBox="0 0 316 199" fill="none" xmlns="http://www.w3.org/2000/svg">
<rect x="3" y="91.1699" width="45.44" height="44.6675" stroke="white" stroke-width="4"/>
<path d="M10.5735 39.44C12.2268 39.44 13.5228 39.8987 14.4615 40.816C15.4108 41.7227 15.8855 43.024 15.8855 44.72C15.8855 46.416 15.4108 47.7227 14.4615 48.64C13.5228 49.5467 12.2268 50 10.5735 50H7.1655V39.44H10.5735ZM10.7015 48.8C11.9068 48.8 12.8455 48.4427 13.5175 47.728C14.2002 47.0027 14.5415 46 14.5415 44.72C14.5415 43.44 14.2002 42.4427 13.5175 41.728C12.8455 41.0027 11.9068 40.64 10.7015 40.64H8.4455V48.8H10.7015ZM23.1288 44.832C23.1288 44.2347 22.9688 43.776 22.6488 43.456C22.3288 43.1253 21.8754 42.96 21.2888 42.96C20.7341 42.96 20.2648 43.0827 19.8808 43.328C19.4968 43.5627 19.2141 43.9467 19.0328 44.48L17.9928 43.84C18.2061 43.2427 18.6008 42.7627 19.1768 42.4C19.7528 42.0267 20.4674 41.84 21.3208 41.84C21.8968 41.84 22.4194 41.9413 22.8888 42.144C23.3581 42.336 23.7261 42.6347 23.9928 43.04C24.2701 43.4347 24.4088 43.9467 24.4088 44.576V48.448C24.4088 48.832 24.6114 49.024 25.0168 49.024C25.2194 49.024 25.4168 48.9973 25.6088 48.944L25.5448 49.952C25.3314 50.0587 25.0541 50.112 24.7128 50.112C24.4034 50.112 24.1261 50.0533 23.8808 49.936C23.6354 49.8187 23.4434 49.6427 23.3048 49.408C23.1661 49.1627 23.0968 48.8587 23.0968 48.496V48.336L23.4168 48.384C23.2888 48.8 23.0701 49.1413 22.7608 49.408C22.4514 49.664 22.1048 49.856 21.7208 49.984C21.3368 50.1013 20.9581 50.16 20.5848 50.16C20.1154 50.16 19.6781 50.08 19.2728 49.92C18.8674 49.76 18.5421 49.52 18.2968 49.2C18.0621 48.8693 17.9448 48.464 17.9448 47.984C17.9448 47.3867 18.1421 46.896 18.5368 46.512C18.9421 46.1173 19.5021 45.8507 20.2168 45.712L23.3848 45.088V46.144L20.8088 46.672C20.2861 46.7787 19.8968 46.928 19.6408 47.12C19.3848 47.312 19.2568 47.5787 19.2568 47.92C19.2568 48.2507 19.3848 48.5227 19.6408 48.736C19.9074 48.9387 20.2808 49.04 20.7608 49.04C21.0701 49.04 21.3634 49.0027 21.6408 48.928C21.9288 48.8427 22.1848 48.72 22.4088 48.56C22.6328 48.3893 22.8088 48.1813 22.9368 47.936C23.0648 47.68 23.1288 47.3813 23.1288 47.04V44.832ZM29.0948 39.728V47.792C29.0948 48.1867 29.2068 48.48 29.4308 48.672C29.6548 48.864 29.9428 48.96 30.2948 48.96C30.6041 48.96 30.8708 48.9067 31.0948 48.8C31.3188 48.6933 31.5214 48.5493 31.7028 48.368L32.1508 49.44C31.9054 49.664 31.6121 49.84 31.2708 49.968C30.9401 50.096 30.5561 50.16 30.1188 50.16C29.7134 50.16 29.3348 50.0907 28.9828 49.952C28.6308 49.8027 28.3481 49.5733 28.1348 49.264C27.9321 48.944 27.8254 48.528 27.8148 48.016V40.08L29.0948 39.728ZM32.0068 42V43.104H26.2148V42H32.0068ZM38.5819 44.832C38.5819 44.2347 38.4219 43.776 38.1019 43.456C37.7819 43.1253 37.3285 42.96 36.7419 42.96C36.1872 42.96 35.7179 43.0827 35.3339 43.328C34.9499 43.5627 34.6672 43.9467 34.4859 44.48L33.4459 43.84C33.6592 43.2427 34.0539 42.7627 34.6299 42.4C35.2059 42.0267 35.9205 41.84 36.7739 41.84C37.3499 41.84 37.8725 41.9413 38.3419 42.144C38.8112 42.336 39.1792 42.6347 39.4459 43.04C39.7232 43.4347 39.8619 43.9467 39.8619 44.576V48.448C39.8619 48.832 40.0645 49.024 40.4699 49.024C40.6725 49.024 40.8699 48.9973 41.0619 48.944L40.9979 49.952C40.7845 50.0587 40.5072 50.112 40.1659 50.112C39.8565 50.112 39.5792 50.0533 39.3339 49.936C39.0885 49.8187 38.8965 49.6427 38.7579 49.408C38.6192 49.1627 38.5499 48.8587 38.5499 48.496V48.336L38.8699 48.384C38.7419 48.8 38.5232 49.1413 38.2139 49.408C37.9045 49.664 37.5579 49.856 37.1739 49.984C36.7899 50.1013 36.4112 50.16 36.0379 50.16C35.5685 50.16 35.1312 50.08 34.7259 49.92C34.3205 49.76 33.9952 49.52 33.7499 49.2C33.5152 48.8693 33.3979 48.464 33.3979 47.984C33.3979 47.3867 33.5952 46.896 33.9899 46.512C34.3952 46.1173 34.9552 45.8507 35.6699 45.712L38.8379 45.088V46.144L36.2619 46.672C35.7392 46.7787 35.3499 46.928 35.0939 47.12C34.8379 47.312 34.7099 47.5787 34.7099 47.92C34.7099 48.2507 34.8379 48.5227 35.0939 48.736C35.3605 48.9387 35.7339 49.04 36.2139 49.04C36.5232 49.04 36.8165 49.0027 37.0939 48.928C37.3819 48.8427 37.6379 48.72 37.8619 48.56C38.0859 48.3893 38.2619 48.1813 38.3899 47.936C38.5179 47.68 38.5819 47.3813 38.5819 47.04V44.832ZM6.45275 63.28C7.45542 63.28 8.31942 63.504 9.04475 63.952C9.78075 64.3893 10.3461 65.0133 10.7408 65.824C11.1461 66.6347 11.3488 67.6 11.3488 68.72C11.3488 69.84 11.1461 70.8053 10.7408 71.616C10.3461 72.4267 9.78075 73.056 9.04475 73.504C8.31942 73.9413 7.45542 74.16 6.45275 74.16C5.45008 74.16 4.58075 73.9413 3.84475 73.504C3.11942 73.056 2.55408 72.4267 2.14875 71.616C1.75408 70.8053 1.55675 69.84 1.55675 68.72C1.55675 67.6 1.75408 66.6347 2.14875 65.824C2.55408 65.0133 3.11942 64.3893 3.84475 63.952C4.58075 63.504 5.45008 63.28 6.45275 63.28ZM6.45275 64.48C5.72742 64.48 5.09808 64.6507 4.56475 64.992C4.03142 65.3227 3.62075 65.808 3.33275 66.448C3.04475 67.0773 2.90075 67.8347 2.90075 68.72C2.90075 69.6053 3.04475 70.368 3.33275 71.008C3.62075 71.6373 4.03142 72.1227 4.56475 72.464C5.09808 72.7947 5.72742 72.96 6.45275 72.96C7.18875 72.96 7.81808 72.7947 8.34075 72.464C8.87408 72.1227 9.28475 71.6373 9.57275 71.008C9.86075 70.368 10.0048 69.6053 10.0048 68.72C10.0048 67.8347 9.86075 67.0773 9.57275 66.448C9.28475 65.808 8.87408 65.3227 8.34075 64.992C7.81808 64.6507 7.18875 64.48 6.45275 64.48ZM17.7674 74.16C17.3194 74.16 16.9034 74.08 16.5194 73.92C16.1354 73.76 15.8047 73.536 15.5274 73.248C15.25 72.96 15.042 72.6347 14.9034 72.272L15.0794 72.048L14.9674 74H13.8474V62.32H15.1274V67.808L14.9674 67.568C15.1807 67.0667 15.538 66.656 16.0394 66.336C16.5514 66.0053 17.1327 65.84 17.7834 65.84C18.4447 65.84 19.0527 66.0053 19.6074 66.336C20.162 66.6667 20.6047 67.1413 20.9354 67.76C21.266 68.3787 21.4314 69.1253 21.4314 70C21.4314 70.864 21.2607 71.6107 20.9194 72.24C20.5887 72.8587 20.146 73.3333 19.5914 73.664C19.0367 73.9947 18.4287 74.16 17.7674 74.16ZM17.6394 73.04C18.4287 73.04 19.042 72.7627 19.4794 72.208C19.9274 71.6533 20.1514 70.9173 20.1514 70C20.1514 69.0827 19.9327 68.3467 19.4954 67.792C19.058 67.2373 18.4447 66.96 17.6554 66.96C17.154 66.96 16.7114 67.088 16.3274 67.344C15.954 67.6 15.6607 67.9573 15.4474 68.416C15.234 68.8747 15.1274 69.4133 15.1274 70.032C15.1274 70.64 15.2287 71.1733 15.4314 71.632C15.6447 72.08 15.938 72.4267 16.3114 72.672C16.6954 72.9173 17.138 73.04 17.6394 73.04ZM24.5186 64.464C24.2306 64.464 23.996 64.3787 23.8146 64.208C23.644 64.0267 23.5586 63.792 23.5586 63.504C23.5586 63.216 23.644 62.9867 23.8146 62.816C23.996 62.6347 24.2306 62.544 24.5186 62.544C24.8066 62.544 25.036 62.6347 25.2066 62.816C25.388 62.9867 25.4786 63.216 25.4786 63.504C25.4786 63.792 25.388 64.0267 25.2066 64.208C25.036 64.3787 24.8066 64.464 24.5186 64.464ZM25.1586 66V74.816C25.1586 75.4773 25.0306 76 24.7746 76.384C24.5186 76.768 24.204 77.04 23.8306 77.2C23.4573 77.36 23.0893 77.44 22.7266 77.44C22.396 77.44 22.092 77.3867 21.8146 77.28C21.5373 77.184 21.308 77.0613 21.1266 76.912L21.3986 75.696C21.548 75.8347 21.7346 75.952 21.9586 76.048C22.1826 76.144 22.4333 76.192 22.7106 76.192C23.052 76.192 23.3293 76.08 23.5426 75.856C23.7666 75.632 23.8786 75.2427 23.8786 74.688V66H25.1586ZM31.4726 74.16C30.7153 74.16 30.038 73.9947 29.4406 73.664C28.854 73.3333 28.3953 72.8587 28.0646 72.24C27.734 71.6107 27.5686 70.864 27.5686 70C27.5686 69.136 27.734 68.3947 28.0646 67.776C28.3953 67.1467 28.8486 66.6667 29.4246 66.336C30.0006 66.0053 30.6566 65.84 31.3926 65.84C32.1393 65.84 32.774 66 33.2966 66.32C33.83 66.64 34.2353 67.0773 34.5126 67.632C34.79 68.176 34.9286 68.7893 34.9286 69.472C34.9286 69.6533 34.9233 69.8187 34.9126 69.968C34.902 70.1173 34.886 70.2507 34.8646 70.368H28.4006V69.232H34.3046L33.6486 69.36C33.6486 68.592 33.4353 68 33.0086 67.584C32.5926 67.168 32.0433 66.96 31.3606 66.96C30.838 66.96 30.3846 67.0827 30.0006 67.328C29.6273 67.5627 29.334 67.9093 29.1206 68.368C28.918 68.816 28.8166 69.36 28.8166 70C28.8166 70.6293 28.9233 71.1733 29.1366 71.632C29.35 72.0907 29.6486 72.4427 30.0326 72.688C30.4273 72.9227 30.8966 73.04 31.4406 73.04C32.0273 73.04 32.502 72.928 32.8646 72.704C33.238 72.48 33.5366 72.176 33.7606 71.792L34.7686 72.384C34.566 72.7467 34.3046 73.0613 33.9846 73.328C33.6753 73.5947 33.3073 73.8027 32.8806 73.952C32.4646 74.0907 31.9953 74.16 31.4726 74.16ZM40.675 65.84C41.2297 65.84 41.715 65.9253 42.131 66.096C42.5577 66.2667 42.9257 66.512 43.235 66.832C43.5443 67.152 43.795 67.5307 43.987 67.968L42.771 68.544C42.6003 68.032 42.339 67.6427 41.987 67.376C41.6457 67.0987 41.1977 66.96 40.643 66.96C40.1097 66.96 39.651 67.0827 39.267 67.328C38.883 67.5627 38.5897 67.9093 38.387 68.368C38.1843 68.816 38.083 69.36 38.083 70C38.083 70.6293 38.1843 71.1733 38.387 71.632C38.5897 72.0907 38.883 72.4427 39.267 72.688C39.651 72.9227 40.1097 73.04 40.643 73.04C41.059 73.04 41.4163 72.976 41.715 72.848C42.0243 72.72 42.275 72.5333 42.467 72.288C42.6697 72.0427 42.8083 71.744 42.883 71.392L44.067 71.808C43.8857 72.2987 43.635 72.72 43.315 73.072C43.0057 73.424 42.627 73.696 42.179 73.888C41.7417 74.0693 41.2403 74.16 40.675 74.16C39.9283 74.16 39.2617 73.9947 38.675 73.664C38.0883 73.3333 37.6297 72.8587 37.299 72.24C36.9683 71.6107 36.803 70.864 36.803 70C36.803 69.136 36.9683 68.3947 37.299 67.776C37.6297 67.1467 38.0883 66.6667 38.675 66.336C39.2617 66.0053 39.9283 65.84 40.675 65.84ZM48.2041 63.728V71.792C48.2041 72.1867 48.3161 72.48 48.5401 72.672C48.7641 72.864 49.0521 72.96 49.4041 72.96C49.7135 72.96 49.9801 72.9067 50.2041 72.8C50.4281 72.6933 50.6308 72.5493 50.8121 72.368L51.2601 73.44C51.0148 73.664 50.7215 73.84 50.3801 73.968C50.0495 74.096 49.6655 74.16 49.2281 74.16C48.8228 74.16 48.4441 74.0907 48.0921 73.952C47.7401 73.8027 47.4575 73.5733 47.2441 73.264C47.0415 72.944 46.9348 72.528 46.9241 72.016V64.08L48.2041 63.728ZM51.1161 66V67.104H45.3241V66H51.1161Z" fill="white"/>
<path fill-rule="evenodd" clip-rule="evenodd" d="M316 198.884H238V166.291L255.8 133.789H298.274L316 166.291V198.884ZM312.75 169.591H241.25V195.629H312.75V169.591ZM257.724 137.044L241.682 166.337H312.321L296.347 137.044H257.724ZM299.75 156.572V159.827H254.25V156.572H299.75ZM296.5 150.063V153.318H257.5V150.063H296.5ZM293.25 143.553V146.808H260.75V143.553H293.25Z" fill="white"/>
<path d="M54.421 111.616C53.6568 111.936 53.2965 112.815 53.6162 113.579C53.936 114.343 54.8148 114.704 55.579 114.384L54.421 111.616ZM196.535 54.9294C196.849 54.1629 196.483 53.2868 195.716 52.9725L183.226 47.8509C182.459 47.5367 181.583 47.9032 181.269 48.6697C180.954 49.4362 181.321 50.3124 182.087 50.6267L193.19 55.1792L188.638 66.2821C188.324 67.0486 188.69 67.9247 189.457 68.239C190.223 68.5533 191.099 68.1867 191.414 67.4202L196.535 54.9294ZM55 113L55.579 114.384L195.726 55.7441L195.147 54.3603L194.568 52.9766L54.421 111.616L55 113Z" fill="white"/>
<path d="M55.3422 111.54C54.5356 111.351 53.7285 111.851 53.5395 112.658C53.3506 113.464 53.8513 114.271 54.6578 114.46L55.3422 111.54ZM230.791 155.275C231.495 154.838 231.711 153.913 231.275 153.209L224.158 141.737C223.721 141.034 222.796 140.817 222.093 141.254C221.389 141.69 221.172 142.615 221.609 143.319L227.935 153.516L217.737 159.842C217.034 160.279 216.817 161.204 217.254 161.908C217.69 162.611 218.615 162.828 219.319 162.391L230.791 155.275ZM55 113L54.6578 114.46L229.658 155.46L230 154L230.342 152.54L55.3422 111.54L55 113Z" fill="white"/>
<path d="M106.442 70.5038C107.975 69.8844 109.348 69.8242 110.562 70.3231C111.782 70.8081 112.71 71.8369 113.345 73.4094C113.98 74.9819 114.03 76.3712 113.493 77.5774C112.963 78.7697 111.931 79.6755 110.398 80.2948L107.238 81.5715L103.282 71.7804L106.442 70.5038ZM110.067 79.1342C111.185 78.6827 111.921 77.9998 112.276 77.0854C112.638 76.1572 112.578 75.0996 112.099 73.9128C111.62 72.7261 110.929 71.9292 110.029 71.5223C109.134 71.1015 108.128 71.1169 107.01 71.5684L104.918 72.4135L107.975 79.9794L110.067 79.1342ZM120.103 70.7998C119.879 70.246 119.559 69.8807 119.142 69.7039C118.722 69.5171 118.24 69.5337 117.696 69.7534C117.181 69.9612 116.792 70.2508 116.528 70.6221C116.26 70.9835 116.142 71.4454 116.173 72.0079L114.969 71.8041C114.943 71.1703 115.129 70.5774 115.528 70.0254C115.922 69.4635 116.515 69.0227 117.306 68.703C117.84 68.4872 118.362 68.3854 118.873 68.3975C119.381 68.3997 119.834 68.5388 120.233 68.8147C120.638 69.0767 120.958 69.4995 121.194 70.083L122.644 73.6731C122.788 74.0291 123.048 74.1312 123.424 73.9793C123.612 73.9034 123.785 73.8048 123.943 73.6834L124.261 74.642C124.103 74.8208 123.866 74.9741 123.549 75.102C123.263 75.2179 122.984 75.2674 122.712 75.2505C122.441 75.2336 122.197 75.1423 121.98 74.9767C121.76 74.8012 121.582 74.5453 121.446 74.209L121.386 74.0607L121.701 73.9853C121.738 74.419 121.663 74.8174 121.476 75.1805C121.285 75.5337 121.036 75.8416 120.727 76.1041C120.415 76.3568 120.086 76.553 119.74 76.6929C119.305 76.8687 118.869 76.9584 118.434 76.9618C117.998 76.9653 117.606 76.8647 117.259 76.6599C116.918 76.4412 116.657 76.1093 116.477 75.6643C116.253 75.1105 116.253 74.5816 116.475 74.0777C116.703 73.5599 117.122 73.1029 117.733 72.7066L120.436 70.9413L120.832 71.9204L118.641 73.375C118.196 73.6696 117.891 73.954 117.726 74.2279C117.561 74.5018 117.542 74.797 117.67 75.1135C117.794 75.4201 118.014 75.6243 118.331 75.7262C118.655 75.8142 119.039 75.7683 119.484 75.5885C119.77 75.4726 120.028 75.3281 120.258 75.155C120.493 74.968 120.684 74.7584 120.832 74.5261C120.976 74.284 121.061 74.0252 121.088 73.7498C121.11 73.4644 121.058 73.1636 120.93 72.8471L120.103 70.7998ZM123.723 63.8326L126.743 71.3094C126.891 71.6753 127.105 71.9054 127.385 71.9995C127.664 72.0936 127.967 72.0747 128.293 71.9428C128.58 71.827 128.808 71.6776 128.975 71.4948C129.143 71.312 129.277 71.1026 129.377 70.8665L130.194 71.6926C130.051 71.9922 129.845 72.2653 129.576 72.5118C129.317 72.7544 128.985 72.9576 128.58 73.1214C128.204 73.2732 127.827 73.3508 127.449 73.3541C127.066 73.3475 126.718 73.2407 126.405 73.0338C126.097 72.8131 125.842 72.4673 125.64 71.9966L122.668 64.6385L123.723 63.8326ZM127.274 64.8483L127.687 65.8719L122.317 68.0416L121.903 67.018L127.274 64.8483ZM134.431 65.011C134.207 64.4572 133.887 64.0918 133.47 63.915C133.05 63.7283 132.567 63.7448 132.024 63.9646C131.509 64.1724 131.12 64.4619 130.856 64.8332C130.588 65.1947 130.47 65.6566 130.501 66.219L129.297 66.0152C129.271 65.3815 129.457 64.7886 129.856 64.2365C130.25 63.6746 130.842 63.2338 131.634 62.9142C132.168 62.6984 132.69 62.5965 133.201 62.6086C133.708 62.6108 134.162 62.7499 134.561 63.0258C134.966 63.2879 135.286 63.7106 135.522 64.2942L136.972 67.8842C137.116 68.2402 137.376 68.3423 137.752 68.1905C137.94 68.1146 138.113 68.0159 138.271 67.8946L138.589 68.8531C138.431 69.032 138.194 69.1853 137.877 69.3132C137.591 69.429 137.311 69.4785 137.04 69.4616C136.769 69.4448 136.525 69.3535 136.308 69.1879C136.088 69.0123 135.91 68.7565 135.774 68.4202L135.714 68.2718L136.028 68.1965C136.066 68.6301 135.991 69.0285 135.804 69.3917C135.613 69.7449 135.363 70.0528 135.055 70.3153C134.743 70.5679 134.414 70.7642 134.068 70.904C133.633 71.0799 133.197 71.1695 132.762 71.173C132.326 71.1765 131.934 71.0758 131.587 70.871C131.245 70.6524 130.985 70.3205 130.805 69.8755C130.581 69.3216 130.58 68.7928 130.803 68.2889C131.03 67.7711 131.45 67.3141 132.06 66.9178L134.764 65.1525L135.16 66.1316L132.969 67.5861C132.524 67.8808 132.219 68.1651 132.054 68.439C131.888 68.713 131.87 69.0081 131.998 69.3246C132.121 69.6312 132.342 69.8355 132.659 69.9374C132.982 70.0254 133.367 69.9795 133.812 69.7997C134.098 69.6838 134.356 69.5393 134.586 69.3662C134.821 69.1792 135.012 68.9695 135.16 68.7373C135.304 68.4951 135.389 68.2363 135.416 67.9609C135.438 67.6756 135.386 67.3747 135.258 67.0582L134.431 65.011ZM98.6837 99.5232C99.6826 99.1196 100.588 99.0531 101.399 99.3236C102.21 99.5941 102.793 100.169 103.149 101.05C103.504 101.93 103.475 102.741 103.062 103.483C102.655 104.212 101.951 104.778 100.952 105.181L100.879 105.297L98.4753 106.268L100.118 110.333L98.9308 110.813L94.975 101.022L98.6837 99.5232ZM100.533 104.143C101.235 103.859 101.696 103.506 101.917 103.083C102.143 102.647 102.138 102.137 101.903 101.553C101.667 100.97 101.318 100.604 100.856 100.457C100.4 100.297 99.8206 100.358 99.1184 100.642L96.6113 101.655L98.0258 105.156L100.533 104.143ZM101.311 104.104L106.541 107.738L105.132 108.307L100.581 105.159L101.311 104.104ZM111.488 105.912C110.786 106.195 110.096 106.296 109.418 106.213C108.751 106.126 108.148 105.858 107.609 105.408C107.067 104.948 106.634 104.318 106.31 103.517C105.986 102.716 105.862 101.967 105.937 101.269C106.008 100.562 106.248 99.9469 106.658 99.4246C107.069 98.9022 107.615 98.5032 108.297 98.2275C108.99 97.9478 109.638 97.8584 110.243 97.9593C110.857 98.0562 111.397 98.3098 111.861 98.7202C112.322 99.1207 112.681 99.6374 112.936 100.27C113.004 100.439 113.061 100.594 113.107 100.736C113.153 100.879 113.189 101.008 113.213 101.125L107.219 103.547L106.794 102.493L112.268 100.282L111.708 100.646C111.42 99.934 111 99.465 110.449 99.2391C109.907 99.0092 109.32 99.0222 108.687 99.2779C108.203 99.4737 107.828 99.7573 107.564 100.129C107.306 100.486 107.164 100.917 107.138 101.422C107.118 101.914 107.228 102.456 107.467 103.05C107.703 103.633 108.006 104.097 108.375 104.443C108.745 104.788 109.154 105.003 109.602 105.086C110.056 105.156 110.535 105.089 111.039 104.885C111.583 104.665 111.981 104.384 112.233 104.04C112.496 103.693 112.659 103.299 112.723 102.859L113.879 103.03C113.827 103.442 113.702 103.832 113.506 104.199C113.319 104.562 113.055 104.893 112.716 105.191C112.382 105.476 111.973 105.716 111.488 105.912ZM115.423 91.4656C115.681 91.3617 115.935 91.2935 116.186 91.2609C116.438 91.2284 116.65 91.2405 116.822 91.2973L116.9 92.3875C116.75 92.3563 116.599 92.3539 116.449 92.3801C116.294 92.3965 116.133 92.4387 115.965 92.5066C115.54 92.6784 115.25 92.9161 115.097 93.2197C114.939 93.5134 114.951 93.8828 115.13 94.3278L115.586 95.4553L115.742 95.841L118.583 102.873L117.396 103.352L113.896 94.6887C113.764 94.3623 113.691 94.0407 113.678 93.7238C113.665 93.4069 113.718 93.1096 113.836 92.8319C113.963 92.5502 114.159 92.293 114.421 92.0603C114.684 91.8277 115.018 91.6294 115.423 91.4656ZM118.063 94.4543L118.477 95.478L113.329 97.5578L112.916 96.5342L118.063 94.4543ZM125.599 100.211C124.897 100.494 124.207 100.595 123.529 100.512C122.861 100.425 122.258 100.157 121.72 99.7071C121.177 99.2475 120.744 98.6171 120.421 97.816C120.097 97.0149 119.973 96.2656 120.047 95.5681C120.118 94.8608 120.359 94.2459 120.769 93.7235C121.179 93.2012 121.726 92.8021 122.408 92.5264C123.1 92.2467 123.749 92.1573 124.353 92.2582C124.967 92.3551 125.507 92.6088 125.972 93.0192C126.433 93.4197 126.791 93.9364 127.047 94.5693C127.115 94.7375 127.172 94.8928 127.218 95.0352C127.264 95.1777 127.299 95.3073 127.323 95.4241L121.33 97.8455L120.904 96.7923L126.379 94.5806L125.818 94.945C125.531 94.2329 125.111 93.7639 124.56 93.5381C124.018 93.3082 123.431 93.3211 122.798 93.5769C122.313 93.7727 121.939 94.0562 121.675 94.4275C121.416 94.785 121.274 95.2163 121.248 95.7215C121.228 96.2127 121.338 96.7551 121.578 97.3485C121.814 97.932 122.116 98.3964 122.486 98.7418C122.856 99.0871 123.264 99.3016 123.712 99.3852C124.166 99.455 124.645 99.388 125.15 99.1842C125.694 98.9644 126.092 98.6827 126.344 98.3392C126.606 97.9917 126.769 97.5979 126.833 97.158L127.99 97.3292C127.937 97.7414 127.813 98.1311 127.616 98.4982C127.429 98.8613 127.166 99.192 126.826 99.4903C126.493 99.7747 126.083 100.015 125.599 100.211ZM131 97.8557L128.003 90.4382L128.968 90.0486L129.622 91.1992C129.646 90.6603 129.81 90.1972 130.114 89.8099C130.427 89.4187 130.871 89.1071 131.445 88.8754C131.573 88.8234 131.716 88.7774 131.872 88.7372C132.038 88.6931 132.188 88.6787 132.32 88.6941L132.55 89.8609C132.426 89.8653 132.295 89.8836 132.158 89.9158C132.022 89.9479 131.835 90.012 131.597 90.1079C131.291 90.2317 131.015 90.4466 130.771 90.7525C130.536 91.0544 130.389 91.4302 130.329 91.8801C130.265 92.32 130.345 92.8169 130.569 93.3708L132.187 97.3762L131 97.8557ZM139.985 94.3984C139.282 94.6821 138.593 94.7825 137.915 94.6997C137.247 94.6129 136.644 94.3446 136.106 93.8948C135.563 93.4352 135.13 92.8048 134.807 92.0037C134.483 91.2027 134.358 90.4534 134.433 89.7559C134.504 89.0485 134.745 88.4336 135.155 87.9113C135.565 87.3889 136.111 86.9899 136.794 86.7142C137.486 86.4345 138.134 86.3451 138.739 86.446C139.353 86.5429 139.893 86.7965 140.358 87.2069C140.819 87.6074 141.177 88.1241 141.433 88.7571C141.501 88.9252 141.558 89.0805 141.604 89.223C141.65 89.3654 141.685 89.495 141.709 89.6118L135.716 92.0333L135.29 90.98L140.764 88.7683L140.204 89.1327C139.916 88.4207 139.497 87.9517 138.945 87.7258C138.404 87.4959 137.817 87.5089 137.184 87.7646C136.699 87.9604 136.325 88.244 136.061 88.6153C135.802 88.9727 135.66 89.404 135.634 89.9092C135.614 90.4005 135.724 90.9428 135.964 91.5362C136.199 92.1197 136.502 92.5842 136.872 92.9295C137.241 93.2749 137.65 93.4894 138.098 93.573C138.552 93.6427 139.031 93.5757 139.535 93.3719C140.079 93.1521 140.478 92.8705 140.73 92.5269C140.992 92.1794 141.155 91.7856 141.219 91.3457L142.375 91.517C142.323 91.9292 142.199 92.3188 142.002 92.6859C141.815 93.0491 141.552 93.3798 141.212 93.6781C140.878 93.9625 140.469 94.2026 139.985 94.3984ZM145.386 92.0434L142.389 84.626L143.428 84.2064L144.203 85.826L143.944 85.7407C143.943 85.2812 144.027 84.8788 144.198 84.5335C144.366 84.1784 144.6 83.8765 144.902 83.6279C145.215 83.3752 145.558 83.173 145.934 83.0212C146.468 82.8054 146.995 82.7134 147.514 82.7453C148.029 82.7673 148.499 82.934 148.924 83.2455C149.359 83.553 149.706 84.0282 149.966 84.671L151.884 89.4182L150.697 89.8977L148.947 85.5659C148.615 84.745 148.208 84.2483 147.724 84.0757C147.246 83.8891 146.749 83.8998 146.235 84.1076C145.879 84.2514 145.557 84.4793 145.269 84.7913C144.981 85.1033 144.794 85.4951 144.709 85.9668C144.633 86.4346 144.723 86.9849 144.979 87.6179L146.573 91.564L145.386 92.0434ZM154.585 79.526C155.099 79.3182 155.581 79.2155 156.031 79.2179C156.491 79.2163 156.924 79.3059 157.33 79.4868C157.737 79.6676 158.111 79.9248 158.453 80.2583L157.541 81.2479C157.191 80.8371 156.803 80.574 156.377 80.4587C155.957 80.3294 155.489 80.3686 154.975 80.5764C154.481 80.7762 154.101 81.0618 153.837 81.4331C153.569 81.7945 153.427 82.2258 153.411 82.727C153.391 83.2183 153.501 83.7607 153.74 84.354C153.976 84.9376 154.274 85.404 154.633 85.7533C154.993 86.1027 155.397 86.3192 155.845 86.4028C156.289 86.4765 156.758 86.4135 157.253 86.2137C157.638 86.0579 157.946 85.8647 158.175 85.6341C158.414 85.3995 158.576 85.1326 158.662 84.8332C158.758 84.5298 158.775 84.2009 158.712 83.8466L159.966 83.7888C159.981 84.3116 159.907 84.7962 159.742 85.2424C159.587 85.6847 159.338 86.0787 158.994 86.4246C158.657 86.7565 158.226 87.0284 157.702 87.2402C157.01 87.5199 156.33 87.6163 155.662 87.5295C154.994 87.4427 154.391 87.1744 153.852 86.7246C153.31 86.265 152.877 85.6346 152.553 84.8335C152.23 84.0325 152.105 83.2832 152.18 82.5857C152.251 81.8783 152.497 81.2614 152.917 80.7351C153.337 80.2087 153.893 79.8057 154.585 79.526ZM166.033 83.8743C165.331 84.158 164.641 84.2584 163.963 84.1756C163.295 84.0888 162.692 83.8205 162.154 83.3707C161.611 82.9111 161.178 82.2807 160.855 81.4796C160.531 80.6786 160.407 79.9293 160.481 79.2318C160.552 78.5244 160.793 77.9095 161.203 77.3872C161.613 76.8648 162.159 76.4658 162.842 76.1901C163.534 75.9104 164.183 75.821 164.787 75.9219C165.401 76.0188 165.941 76.2724 166.406 76.6828C166.867 77.0833 167.225 77.6 167.481 78.233C167.549 78.4011 167.606 78.5564 167.652 78.6989C167.698 78.8413 167.733 78.9709 167.757 79.0877L161.764 81.5092L161.338 80.4559L166.812 78.2442L166.252 78.6086C165.964 77.8966 165.545 77.4276 164.993 77.2017C164.452 76.9718 163.865 76.9848 163.232 77.2405C162.747 77.4363 162.373 77.7198 162.109 78.0912C161.85 78.4486 161.708 78.8799 161.682 79.3851C161.662 79.8764 161.772 80.4187 162.012 81.0121C162.248 81.5956 162.55 82.0601 162.92 82.4054C163.289 82.7508 163.698 82.9653 164.146 83.0489C164.6 83.1186 165.079 83.0516 165.584 82.8478C166.127 82.628 166.526 82.3464 166.778 82.0028C167.04 81.6553 167.203 81.2615 167.267 80.8216L168.423 80.9929C168.371 81.4051 168.247 81.7947 168.05 82.1618C167.863 82.525 167.6 82.8557 167.26 83.154C166.927 83.4384 166.517 83.6785 166.033 83.8743Z" fill="white"/>
<path fill-rule="evenodd" clip-rule="evenodd" d="M279 99.7396H201V67.1465L218.8 34.6445H261.274L279 67.1465V99.7396ZM275.75 70.4468H204.25V96.4848H275.75V70.4468ZM220.724 37.8993L204.682 67.192H275.321L259.347 37.8993H220.724ZM262.75 57.4278V60.6825H217.25V57.4278H262.75ZM259.5 50.9183V54.173H220.5V50.9183H259.5ZM256.25 44.4088V47.6635H223.75V44.4088H256.25Z" fill="white"/>
<path d="M211.717 14.296C211.493 14.8933 211.173 15.4107 210.757 15.848C210.341 16.2747 209.85 16.6 209.285 16.824C208.73 17.048 208.122 17.16 207.461 17.16C206.458 17.16 205.589 16.9413 204.853 16.504C204.127 16.056 203.562 15.4267 203.157 14.616C202.762 13.8053 202.565 12.84 202.565 11.72C202.565 10.6 202.762 9.63467 203.157 8.824C203.562 8.01333 204.127 7.38933 204.853 6.952C205.589 6.504 206.447 6.28 207.429 6.28C208.111 6.28 208.719 6.376 209.253 6.568C209.786 6.74933 210.239 7.02667 210.613 7.4C210.997 7.76267 211.301 8.21067 211.525 8.744L210.261 9.336C210.026 8.728 209.685 8.26933 209.237 7.96C208.799 7.64 208.229 7.48 207.525 7.48C206.81 7.48 206.181 7.65067 205.637 7.992C205.093 8.32267 204.666 8.80267 204.357 9.432C204.058 10.0613 203.909 10.824 203.909 11.72C203.909 12.6053 204.053 13.368 204.341 14.008C204.629 14.6373 205.039 15.1227 205.573 15.464C206.106 15.7947 206.735 15.96 207.461 15.96C208.165 15.96 208.778 15.784 209.301 15.432C209.823 15.0693 210.202 14.5307 210.437 13.816L211.717 14.296ZM217.245 8.84C218.003 8.84 218.669 9.00533 219.245 9.336C219.832 9.66667 220.291 10.1467 220.621 10.776C220.952 11.3947 221.117 12.136 221.117 13C221.117 13.864 220.952 14.6107 220.621 15.24C220.291 15.8587 219.832 16.3333 219.245 16.664C218.669 16.9947 218.003 17.16 217.245 17.16C216.499 17.16 215.832 16.9947 215.245 16.664C214.659 16.3333 214.2 15.8587 213.869 15.24C213.539 14.6107 213.373 13.864 213.373 13C213.373 12.136 213.539 11.3947 213.869 10.776C214.2 10.1467 214.659 9.66667 215.245 9.336C215.832 9.00533 216.499 8.84 217.245 8.84ZM217.245 9.944C216.701 9.944 216.237 10.0667 215.853 10.312C215.469 10.5573 215.171 10.9093 214.957 11.368C214.755 11.816 214.653 12.36 214.653 13C214.653 13.6293 214.755 14.1733 214.957 14.632C215.171 15.0907 215.469 15.4427 215.853 15.688C216.237 15.9333 216.701 16.056 217.245 16.056C217.789 16.056 218.253 15.9333 218.637 15.688C219.021 15.4427 219.315 15.0907 219.517 14.632C219.731 14.1733 219.837 13.6293 219.837 13C219.837 12.36 219.731 11.816 219.517 11.368C219.315 10.9093 219.021 10.5573 218.637 10.312C218.253 10.0667 217.789 9.944 217.245 9.944ZM223.527 17V9H224.647L224.759 10.792L224.551 10.616C224.722 10.1893 224.951 9.848 225.239 9.592C225.527 9.32533 225.858 9.13333 226.231 9.016C226.615 8.89867 227.01 8.84 227.415 8.84C227.991 8.84 228.514 8.952 228.983 9.176C229.452 9.38933 229.826 9.72 230.103 10.168C230.391 10.616 230.535 11.1867 230.535 11.88V17H229.255V12.328C229.255 11.4427 229.063 10.8293 228.679 10.488C228.306 10.136 227.842 9.96 227.287 9.96C226.903 9.96 226.519 10.0507 226.135 10.232C225.751 10.4133 225.431 10.7067 225.175 11.112C224.93 11.5173 224.807 12.0613 224.807 12.744V17H223.527ZM235.212 6.728V14.792C235.212 15.1867 235.324 15.48 235.548 15.672C235.772 15.864 236.06 15.96 236.412 15.96C236.721 15.96 236.988 15.9067 237.212 15.8C237.436 15.6933 237.639 15.5493 237.82 15.368L238.268 16.44C238.023 16.664 237.729 16.84 237.388 16.968C237.057 17.096 236.673 17.16 236.236 17.16C235.831 17.16 235.452 17.0907 235.1 16.952C234.748 16.8027 234.465 16.5733 234.252 16.264C234.049 15.944 233.943 15.528 233.932 15.016V7.08L235.212 6.728ZM238.124 9V10.104H232.332V9H238.124ZM244.699 11.832C244.699 11.2347 244.539 10.776 244.219 10.456C243.899 10.1253 243.446 9.96 242.859 9.96C242.304 9.96 241.835 10.0827 241.451 10.328C241.067 10.5627 240.784 10.9467 240.603 11.48L239.563 10.84C239.776 10.2427 240.171 9.76267 240.747 9.4C241.323 9.02667 242.038 8.84 242.891 8.84C243.467 8.84 243.99 8.94133 244.459 9.144C244.928 9.336 245.296 9.63467 245.563 10.04C245.84 10.4347 245.979 10.9467 245.979 11.576V15.448C245.979 15.832 246.182 16.024 246.587 16.024C246.79 16.024 246.987 15.9973 247.179 15.944L247.115 16.952C246.902 17.0587 246.624 17.112 246.283 17.112C245.974 17.112 245.696 17.0533 245.451 16.936C245.206 16.8187 245.014 16.6427 244.875 16.408C244.736 16.1627 244.667 15.8587 244.667 15.496V15.336L244.987 15.384C244.859 15.8 244.64 16.1413 244.331 16.408C244.022 16.664 243.675 16.856 243.291 16.984C242.907 17.1013 242.528 17.16 242.155 17.16C241.686 17.16 241.248 17.08 240.843 16.92C240.438 16.76 240.112 16.52 239.867 16.2C239.632 15.8693 239.515 15.464 239.515 14.984C239.515 14.3867 239.712 13.896 240.107 13.512C240.512 13.1173 241.072 12.8507 241.787 12.712L244.955 12.088V13.144L242.379 13.672C241.856 13.7787 241.467 13.928 241.211 14.12C240.955 14.312 240.827 14.5787 240.827 14.92C240.827 15.2507 240.955 15.5227 241.211 15.736C241.478 15.9387 241.851 16.04 242.331 16.04C242.64 16.04 242.934 16.0027 243.211 15.928C243.499 15.8427 243.755 15.72 243.979 15.56C244.203 15.3893 244.379 15.1813 244.507 14.936C244.635 14.68 244.699 14.3813 244.699 14.04V11.832ZM249.73 7.464C249.442 7.464 249.207 7.37867 249.026 7.208C248.855 7.02667 248.77 6.792 248.77 6.504C248.77 6.216 248.855 5.98667 249.026 5.816C249.207 5.63467 249.442 5.544 249.73 5.544C250.018 5.544 250.247 5.63467 250.418 5.816C250.599 5.98667 250.69 6.216 250.69 6.504C250.69 6.792 250.599 7.02667 250.418 7.208C250.247 7.37867 250.018 7.464 249.73 7.464ZM250.37 9V17H249.09V9H250.37ZM253.34 17V9H254.46L254.572 10.792L254.364 10.616C254.534 10.1893 254.764 9.848 255.052 9.592C255.34 9.32533 255.67 9.13333 256.044 9.016C256.428 8.89867 256.822 8.84 257.228 8.84C257.804 8.84 258.326 8.952 258.796 9.176C259.265 9.38933 259.638 9.72 259.916 10.168C260.204 10.616 260.348 11.1867 260.348 11.88V17H259.068V12.328C259.068 11.4427 258.876 10.8293 258.492 10.488C258.118 10.136 257.654 9.96 257.1 9.96C256.716 9.96 256.332 10.0507 255.948 10.232C255.564 10.4133 255.244 10.7067 254.988 11.112C254.742 11.5173 254.62 12.0613 254.62 12.744V17H253.34ZM266.59 17.16C265.832 17.16 265.155 16.9947 264.558 16.664C263.971 16.3333 263.512 15.8587 263.182 15.24C262.851 14.6107 262.686 13.864 262.686 13C262.686 12.136 262.851 11.3947 263.182 10.776C263.512 10.1467 263.966 9.66667 264.542 9.336C265.118 9.00533 265.774 8.84 266.51 8.84C267.256 8.84 267.891 9 268.414 9.32C268.947 9.64 269.352 10.0773 269.63 10.632C269.907 11.176 270.046 11.7893 270.046 12.472C270.046 12.6533 270.04 12.8187 270.03 12.968C270.019 13.1173 270.003 13.2507 269.982 13.368H263.518V12.232H269.422L268.766 12.36C268.766 11.592 268.552 11 268.126 10.584C267.71 10.168 267.16 9.96 266.478 9.96C265.955 9.96 265.502 10.0827 265.118 10.328C264.744 10.5627 264.451 10.9093 264.238 11.368C264.035 11.816 263.934 12.36 263.934 13C263.934 13.6293 264.04 14.1733 264.254 14.632C264.467 15.0907 264.766 15.4427 265.15 15.688C265.544 15.9227 266.014 16.04 266.558 16.04C267.144 16.04 267.619 15.928 267.982 15.704C268.355 15.48 268.654 15.176 268.878 14.792L269.886 15.384C269.683 15.7467 269.422 16.0613 269.102 16.328C268.792 16.5947 268.424 16.8027 267.998 16.952C267.582 17.0907 267.112 17.16 266.59 17.16ZM272.48 17V9H273.52L273.696 10.312C273.92 9.82133 274.246 9.45333 274.672 9.208C275.11 8.96267 275.638 8.84 276.256 8.84C276.395 8.84 276.544 8.85067 276.704 8.872C276.875 8.89333 277.019 8.936 277.136 9L276.912 10.168C276.795 10.1253 276.667 10.0933 276.528 10.072C276.39 10.0507 276.192 10.04 275.936 10.04C275.606 10.04 275.27 10.136 274.928 10.328C274.598 10.52 274.32 10.8133 274.096 11.208C273.872 11.592 273.76 12.0827 273.76 12.68V17H272.48Z" fill="white"/>
</svg>
