<svg width="77" height="77" viewBox="0 0 77 77" fill="none" xmlns="http://www.w3.org/2000/svg">
<path id="Subtract" fill-rule="evenodd" clip-rule="evenodd" d="M58.2412 71.5604C69.4774 64.8365 77 52.5467 77 38.5C77 17.237 59.763 0 38.5 0C17.237 0 0 17.237 0 38.5C0 45.5511 1.89554 52.1595 5.20484 57.8434L12.991 30.405C13.825 27.4662 17.1795 25.6756 20.4456 26.4261L32.8565 29.2776C34.983 26.465 38.8859 24.9712 42.7457 25.8581C46.6056 26.7449 49.2348 29.7396 49.6024 33.1252L62.0133 35.9768C65.2793 36.7272 67.2692 39.7458 66.4353 42.6846L58.2412 71.5604ZM50.9567 74.9402L60.497 41.3202L54.5588 39.9558L52.2843 47.9709L22.5931 41.1489L24.8675 33.1338L18.9293 31.7694L9.75216 64.1094C16.8033 72.0191 27.07 77 38.5 77C42.8594 77 47.0496 76.2754 50.9567 74.9402ZM43.4404 34.5553C43.8574 33.0859 42.8625 31.5767 41.2294 31.2014C39.5964 30.8262 37.9192 31.7215 37.5022 33.1909C37.0852 34.6604 38.0801 36.1696 39.7131 36.5448C41.3462 36.92 43.0234 36.0248 43.4404 34.5553Z" fill="#A5AFB7"/>
</svg>
