  <svg
    width="118"
    height="169"
    viewBox="0 0 118 169"
    fill="none"
    xmlns="http://www.w3.org/2000/svg"
  >
    <path
      fill-rule="evenodd"
      clip-rule="evenodd"
      d="M118 59C118 71.2596 114.261 82.6458 107.861 92.0805L59 169L10.137 92.0771C3.73827 82.6431 0 71.2581 0 59C0 26.4152 26.4152 0 59 0C91.5848 0 118 26.4152 118 59ZM59 109C86.6142 109 109 86.6142 109 59C109 31.3858 86.6142 9 59 9C31.3858 9 9 31.3858 9 59C9 86.6142 31.3858 109 59 109Z"
      fill="#A5AFB7"
    />
    <path
      d="M76.3916 83.2198C75.2916 83.2198 74.3236 82.9925 73.4876 82.5378C72.6516 82.0831 71.9989 81.4305 71.5296 80.5798C71.0749 79.7145 70.8476 78.6878 70.8476 77.4998C70.8476 76.3118 71.0749 75.2925 71.5296 74.4418C71.9989 73.5765 72.6443 72.9165 73.4656 72.4618C74.2869 72.0071 75.2183 71.7798 76.2596 71.7798C77.3303 71.7798 78.2396 71.9998 78.9876 72.4398C79.7356 72.8798 80.3076 73.4811 80.7036 74.2438C81.0996 75.0065 81.2976 75.8718 81.2976 76.8398C81.2976 77.1038 81.2903 77.3531 81.2756 77.5878C81.2609 77.8225 81.2389 78.0278 81.2096 78.2038H72.3656V76.3998H80.1756L79.0096 76.7518C79.0096 75.7545 78.7603 74.9918 78.2616 74.4638C77.7629 73.9211 77.0809 73.6498 76.2156 73.6498C75.5849 73.6498 75.0349 73.7965 74.5656 74.0898C74.0963 74.3831 73.7369 74.8231 73.4876 75.4098C73.2383 75.9818 73.1136 76.6858 73.1136 77.5218C73.1136 78.3431 73.2456 79.0398 73.5096 79.6118C73.7736 80.1838 74.1476 80.6165 74.6316 80.9098C75.1156 81.2031 75.6876 81.3498 76.3476 81.3498C77.0809 81.3498 77.6749 81.2105 78.1296 80.9318C78.5843 80.6531 78.9436 80.2645 79.2076 79.7658L81.0776 80.6458C80.8136 81.1738 80.4543 81.6358 79.9996 82.0318C79.5596 82.4131 79.0316 82.7065 78.4156 82.9118C77.7996 83.1171 77.1249 83.2198 76.3916 83.2198Z"
      fill="#5B626A"
    />
    <path
      d="M62.7216 82.9998V71.9998H64.7236L64.9436 73.9798C65.2369 73.2611 65.6696 72.7185 66.2416 72.3518C66.8282 71.9705 67.5469 71.7798 68.3976 71.7798C68.6176 71.7798 68.8376 71.8018 69.0576 71.8458C69.2776 71.8751 69.4609 71.9265 69.6076 71.9998L69.2776 74.0678C69.1162 74.0091 68.9329 73.9651 68.7276 73.9358C68.5369 73.8918 68.2729 73.8698 67.9356 73.8698C67.4809 73.8698 67.0336 73.9945 66.5936 74.2438C66.1536 74.4785 65.7869 74.8378 65.4936 75.3218C65.2149 75.8058 65.0756 76.4218 65.0756 77.1698V82.9998H62.7216Z"
      fill="#5B626A"
    />
    <path
      d="M54.8428 83.2198C53.7428 83.2198 52.7748 82.9925 51.9388 82.5378C51.1028 82.0831 50.4501 81.4305 49.9808 80.5798C49.5261 79.7145 49.2988 78.6878 49.2988 77.4998C49.2988 76.3118 49.5261 75.2925 49.9808 74.4418C50.4501 73.5765 51.0954 72.9165 51.9168 72.4618C52.7381 72.0071 53.6694 71.7798 54.7108 71.7798C55.7814 71.7798 56.6908 71.9998 57.4388 72.4398C58.1868 72.8798 58.7588 73.4811 59.1548 74.2438C59.5508 75.0065 59.7488 75.8718 59.7488 76.8398C59.7488 77.1038 59.7414 77.3531 59.7268 77.5878C59.7121 77.8225 59.6901 78.0278 59.6608 78.2038H50.8168V76.3998H58.6268L57.4608 76.7518C57.4608 75.7545 57.2114 74.9918 56.7128 74.4638C56.2141 73.9211 55.5321 73.6498 54.6668 73.6498C54.0361 73.6498 53.4861 73.7965 53.0168 74.0898C52.5474 74.3831 52.1881 74.8231 51.9388 75.4098C51.6894 75.9818 51.5648 76.6858 51.5648 77.5218C51.5648 78.3431 51.6968 79.0398 51.9608 79.6118C52.2248 80.1838 52.5988 80.6165 53.0828 80.9098C53.5668 81.2031 54.1388 81.3498 54.7988 81.3498C55.5321 81.3498 56.1261 81.2105 56.5808 80.9318C57.0354 80.6531 57.3948 80.2645 57.6588 79.7658L59.5288 80.6458C59.2648 81.1738 58.9054 81.6358 58.4508 82.0318C58.0108 82.4131 57.4828 82.7065 56.8668 82.9118C56.2508 83.1171 55.5761 83.2198 54.8428 83.2198Z"
      fill="#5B626A"
    />
    <path
      d="M36.3817 82.9998V67.0498H38.7357V73.7598C39.1024 73.0705 39.5937 72.5718 40.2097 72.2638C40.8404 71.9411 41.537 71.7798 42.2997 71.7798C43.077 71.7798 43.7737 71.9338 44.3897 72.2418C45.0204 72.5351 45.519 72.9825 45.8857 73.5838C46.2524 74.1851 46.4357 74.9478 46.4357 75.8718V82.9998H44.0817V76.6198C44.0817 75.5345 43.8544 74.7791 43.3997 74.3538C42.9597 73.9285 42.4024 73.7158 41.7277 73.7158C41.2584 73.7158 40.789 73.8331 40.3197 74.0678C39.865 74.2878 39.4837 74.6545 39.1757 75.1678C38.8824 75.6665 38.7357 76.3411 38.7357 77.1918V82.9998H36.3817Z"
      fill="#5B626A"
    />
    <path
      d="M81.1874 36.7656V47.6996C81.1874 48.2423 81.3268 48.6383 81.6054 48.8876C81.8988 49.137 82.2874 49.2616 82.7714 49.2616C83.1674 49.2616 83.5121 49.203 83.8054 49.0856C84.0988 48.9536 84.3701 48.7776 84.6194 48.5576L85.1474 50.2736C84.8101 50.567 84.3921 50.8016 83.8934 50.9776C83.4094 51.139 82.8668 51.2196 82.2654 51.2196C81.6348 51.2196 81.0554 51.117 80.5274 50.9116C79.9994 50.7063 79.5888 50.3763 79.2954 49.9216C79.0021 49.4523 78.8481 48.8436 78.8334 48.0956V37.4256L81.1874 36.7656ZM84.9714 39.9996V41.8476H76.7214V39.9996H84.9714Z"
      fill="#5B626A"
    />
    <path
      d="M69.4032 50.9998V39.9998H71.4052L71.6252 41.9798C71.9185 41.2611 72.3512 40.7185 72.9232 40.3518C73.5099 39.9705 74.2285 39.7798 75.0792 39.7798C75.2992 39.7798 75.5192 39.8018 75.7392 39.8458C75.9592 39.8751 76.1425 39.9265 76.2892 39.9998L75.9592 42.0678C75.7979 42.0091 75.6145 41.9651 75.4092 41.9358C75.2185 41.8918 74.9545 41.8698 74.6172 41.8698C74.1625 41.8698 73.7152 41.9945 73.2752 42.2438C72.8352 42.4785 72.4685 42.8378 72.1752 43.3218C71.8965 43.8058 71.7572 44.4218 71.7572 45.1698V50.9998H69.4032Z"
      fill="#5B626A"
    />
    <path
      d="M63.2143 43.9378C63.2143 43.2045 63.0089 42.6398 62.5983 42.2438C62.2023 41.8331 61.6523 41.6278 60.9483 41.6278C60.2883 41.6278 59.7236 41.7818 59.2543 42.0898C58.7849 42.3978 58.4403 42.8965 58.2203 43.5858L56.2403 42.7498C56.5189 41.8551 57.0616 41.1365 57.8683 40.5938C58.6896 40.0511 59.7456 39.7798 61.0363 39.7798C61.9163 39.7798 62.6936 39.9265 63.3683 40.2198C64.0429 40.4985 64.5709 40.9238 64.9523 41.4958C65.3483 42.0678 65.5463 42.8011 65.5463 43.6958V48.6018C65.5463 49.1445 65.8176 49.4158 66.3603 49.4158C66.6243 49.4158 66.8809 49.3791 67.1303 49.3058L66.9983 50.9338C66.6609 51.0951 66.2356 51.1758 65.7223 51.1758C65.2529 51.1758 64.8276 51.0951 64.4463 50.9338C64.0796 50.7578 63.7863 50.5011 63.5663 50.1638C63.3609 49.8118 63.2583 49.3791 63.2583 48.8658V48.7118L63.7423 48.6898C63.6103 49.2618 63.3389 49.7385 62.9283 50.1198C62.5176 50.4865 62.0409 50.7651 61.4983 50.9558C60.9556 51.1318 60.4056 51.2198 59.8483 51.2198C59.1589 51.2198 58.5356 51.1098 57.9783 50.8898C57.4356 50.6698 57.0029 50.3398 56.6803 49.8998C56.3723 49.4451 56.2183 48.8878 56.2183 48.2278C56.2183 47.4065 56.4823 46.7318 57.0103 46.2038C57.5529 45.6758 58.3156 45.3165 59.2983 45.1258L63.5663 44.2898L63.5443 45.9398L60.4423 46.5778C59.8263 46.6951 59.3643 46.8638 59.0563 47.0838C58.7483 47.3038 58.5943 47.6265 58.5943 48.0518C58.5943 48.4625 58.7483 48.7925 59.0563 49.0418C59.3789 49.2765 59.8043 49.3938 60.3323 49.3938C60.6989 49.3938 61.0509 49.3498 61.3883 49.2618C61.7403 49.1738 62.0556 49.0345 62.3343 48.8438C62.6129 48.6385 62.8256 48.3818 62.9723 48.0738C63.1336 47.7511 63.2143 47.3698 63.2143 46.9298V43.9378Z"
      fill="#5B626A"
    />
    <path
      d="M50.6796 36.7656V47.6996C50.6796 48.2423 50.819 48.6383 51.0976 48.8876C51.391 49.137 51.7796 49.2616 52.2636 49.2616C52.6596 49.2616 53.0043 49.203 53.2976 49.0856C53.591 48.9536 53.8623 48.7776 54.1116 48.5576L54.6396 50.2736C54.3023 50.567 53.8843 50.8016 53.3856 50.9776C52.9016 51.139 52.359 51.2196 51.7576 51.2196C51.127 51.2196 50.5476 51.117 50.0196 50.9116C49.4916 50.7063 49.081 50.3763 48.7876 49.9216C48.4943 49.4523 48.3403 48.8436 48.3256 48.0956V37.4256L50.6796 36.7656ZM54.4636 39.9996V41.8476H46.2136V39.9996H54.4636Z"
      fill="#5B626A"
    />
    <path
      d="M38.6324 36.2598C39.9377 36.2598 41.0671 36.5091 42.0204 37.0078C42.9737 37.4918 43.7804 38.2104 44.4404 39.1638L42.8564 40.6818C42.2991 39.8311 41.6684 39.2224 40.9644 38.8558C40.2751 38.4744 39.4537 38.2838 38.5004 38.2838C37.7964 38.2838 37.2171 38.3791 36.7624 38.5698C36.3077 38.7604 35.9704 39.0171 35.7504 39.3398C35.5451 39.6478 35.4424 39.9998 35.4424 40.3958C35.4424 40.8504 35.5964 41.2464 35.9044 41.5838C36.2271 41.9211 36.8211 42.1851 37.6864 42.3758L40.6344 43.0358C42.0424 43.3438 43.0397 43.8131 43.6264 44.4438C44.2131 45.0744 44.5064 45.8738 44.5064 46.8418C44.5064 47.7364 44.2644 48.5138 43.7804 49.1738C43.2964 49.8338 42.6217 50.3398 41.7564 50.6918C40.9057 51.0438 39.9011 51.2198 38.7424 51.2198C37.7157 51.2198 36.7917 51.0878 35.9704 50.8238C35.1491 50.5598 34.4304 50.2004 33.8144 49.7458C33.1984 49.2911 32.6924 48.7704 32.2964 48.1838L33.9244 46.5558C34.2324 47.0691 34.6211 47.5311 35.0904 47.9418C35.5597 48.3378 36.1024 48.6458 36.7184 48.8658C37.3491 49.0858 38.0457 49.1958 38.8084 49.1958C39.4831 49.1958 40.0624 49.1151 40.5464 48.9538C41.0451 48.7924 41.4191 48.5578 41.6684 48.2498C41.9324 47.9271 42.0644 47.5458 42.0644 47.1058C42.0644 46.6804 41.9177 46.3064 41.6244 45.9838C41.3457 45.6611 40.8177 45.4118 40.0404 45.2358L36.8504 44.5098C35.9704 44.3191 35.2444 44.0478 34.6724 43.6958C34.1004 43.3438 33.6751 42.9184 33.3964 42.4198C33.1177 41.9064 32.9784 41.3344 32.9784 40.7038C32.9784 39.8824 33.1984 39.1418 33.6384 38.4818C34.0931 37.8071 34.7457 37.2718 35.5964 36.8758C36.4471 36.4651 37.4591 36.2598 38.6324 36.2598Z"
      fill="#5B626A"
    />
  </svg>